<?xml version="1.0" encoding="UTF-8"?>
<!DOCTYPE svg PUBLIC "-//W3C//DTD SVG 1.0//EN" "http://www.w3.org/TR/2001/REC-SVG-20010904/DTD/svg10.dtd">
<!-- Creator: CorelDRAW -->
<svg xmlns="http://www.w3.org/2000/svg" xml:space="preserve" width="86.6986mm" height="86.6986mm" version="1.0" style="shape-rendering:geometricPrecision; text-rendering:geometricPrecision; image-rendering:optimizeQuality; fill-rule:evenodd; clip-rule:evenodd"
viewBox="0 0 8669.86 8669.86"
 xmlns:xlink="http://www.w3.org/1999/xlink"
 xmlns:xodm="http://www.corel.com/coreldraw/odm/2003">
 <defs>
  <style type="text/css">
   <![CDATA[
    .fil3 {fill:#2B8B46}
    .fil4 {fill:#5C9D39}
    .fil1 {fill:#65C3F1}
    .fil2 {fill:#68BA3A}
    .fil5 {fill:#81B225}
    .fil7 {fill:#8EC7D8}
    .fil9 {fill:#B7E5B2}
    .fil12 {fill:#D88818}
    .fil0 {fill:#E28205}
    .fil13 {fill:#E6AB51}
    .fil6 {fill:#E9D39A}
    .fil10 {fill:#F4EBC4}
    .fil8 {fill:#F5F3EC}
    .fil11 {fill:#FEFEFE}
   ]]>
  </style>
 </defs>
 <g id="Layer_x0020_1">
  <metadata id="CorelCorpID_0Corel-Layer"/>
  <g id="_1983572018096">
   <path class="fil0" d="M1891.43 4583.59c8.15,2.96 51.66,55.69 129.61,84.77 24.86,9.28 48.79,22.49 80.24,23.64 38.99,1.42 64.04,2.81 101.82,-1.17l46.33 -6.36c22.51,-7.68 30.87,-6.62 49.62,-16.01l35 -17.42c3.03,-1.66 5.42,-3.06 8.41,-4.72 7.18,-4 10.99,-5.99 17.63,-10.59 5.5,-3.81 10.89,-7.05 16.03,-10.27l15.94 -10.41c4.71,-2.56 16.17,-16.24 29.3,-25.22l28.8 -23.84c14.45,-15.32 38.1,-40.92 46.71,-60.77 5.12,-11.81 14.19,-22.63 18.34,-34.32 4.71,-13.24 10.29,-26.73 7.8,-45.04 -2.44,-17.89 -13.93,-25.55 -32.12,-22.88 -26.06,3.82 -63.11,17.27 -92.75,6.13 -16.98,-6.38 -19.77,-9.82 -28.31,-24.01 -4.43,-7.35 -12.54,-31.84 -13.77,-40.63 -4.52,-32.13 11.74,-62.56 23.69,-80.37 10.88,-16.22 29.66,-25.34 48.34,-30.77 7.45,-2.17 11.57,-6.23 19.21,-8.66 11.53,-3.68 31.91,-8.2 45.96,-4.41 7.23,1.94 11.37,4.66 18.98,7.08 45.04,14.36 48.99,27.53 76.64,58.91 15.74,17.86 26.1,51.61 32.48,73.24 4.32,14.64 9.92,17.01 13.66,38.19 2.69,15.27 5.09,32.43 6.02,48.85 5.13,90.77 3.48,112.08 -3.09,201.26 -1.01,13.8 -2.84,35.03 -5.55,48.1l-9.94 41.68c-6.38,33.8 -7.67,54.35 -18.37,89.16 -4.18,13.62 -6.17,27.62 -10.56,42.24 -3.88,12.93 -10.35,24.55 -14.37,39.64 -14.59,54.82 -37.11,103.51 -57.88,155.25 -9.81,24.46 -21.27,52.58 -32.18,74.84 -9.27,18.92 -20.51,59.71 -27.88,79.87 -19.68,53.85 5.12,100.01 53.44,119.44 23.68,9.53 34.43,14.29 64.35,14.45 49.13,0.27 89.5,-13.13 135.82,-24.94 39.52,-10.08 74.17,-32.85 110.09,-50.07 6.87,-3.29 10.99,-5.71 17.32,-9.02 7.05,-3.68 10.21,-5.75 16.45,-9.84 27.49,-18.02 36.08,-21.51 63.45,-43.79 14.18,-11.53 27.23,-25.83 42.24,-36.59 15.82,-11.34 28.44,-23.75 42.29,-36.92l52.54 -54.65c4.04,-4.8 7.11,-9.85 11.31,-15.13l47.51 -57.77c4.44,-5.79 6.63,-10.51 12.12,-15.84 10.39,-10.07 15.23,-23.23 24.26,-34.18l20.62 -28.56c12.21,-18.31 26.29,-35.57 37.74,-54.35l47.96 -77.92c9.2,-15.07 19,-32.03 25.63,-47.96 5.6,-13.45 12.51,-23.71 17.13,-37.26 8.86,-26.02 21.62,-49.2 32.34,-74.85l10.92 -28.46c1.86,-3.92 2.13,-5.01 3.61,-9.6 2.37,-7.36 5.09,-12.99 8.06,-20.11 2.92,-7.04 4,-12.04 6.94,-19.65 7.13,-18.45 16.78,-36.59 23.42,-55.65l23.82 -54.97c2.63,-4.68 2.42,-3.4 4.61,-8.65l6.9 -13.46c1.27,-1.87 1.71,-2.5 3.05,-4.41 6.17,-8.77 6.97,-17.5 11.86,-27.54l19.72 -48.07c1.9,-4.19 2.2,-2.6 4.34,-8.6l15.03 -37.8c2.43,-6.4 3.98,-14.77 6.93,-21.64l8.56 -17.5c4.52,-11.12 8.26,-28.41 15.11,-37.47 1.32,-1.74 0.12,0.34 2.49,-3.04 6.61,-9.41 10.2,-21.73 14.42,-32.59 3.54,-9.11 14.83,-32.15 20.67,-37.96 1.48,-1.48 2.03,-1.8 3.3,-3.7 5.72,-8.49 7.31,-20.08 12.19,-29.1 4.34,-8.01 4.83,-9.37 8.34,-17.83 2.65,-6.39 5.51,-10.01 8.88,-17.47l20.71 -45.13c6.2,-16.15 10.64,-19.5 13.19,-26.08l19.58 -35.06c3.21,-6.81 6.56,-10.72 10.08,-16.39 12.24,-19.72 20.4,-42.6 34.7,-61.34l17.69 -27.17c0.19,-0.42 0.4,-0.93 0.6,-1.34l6.46 -10.72c12.2,-18.03 20.89,-23.67 29.94,-35.76l1.6 -2.25c9.94,-13.11 22.84,-23.6 34.95,-34.96 0.28,-0.27 0.68,-0.65 0.96,-0.92l1.92 -1.86c13.4,-13.03 20.13,-17.47 33.91,-28.11 3.42,-2.64 0.21,-0.39 4.6,-3.19 17.3,-11.07 13.28,-9.62 33.06,-19.36 77.51,-38.15 102.19,-13.33 175.35,-1.61 16.75,2.69 30.98,6.64 45.22,8.96 44.56,7.24 58.71,-0.32 93.53,-7.73 13.4,-2.86 9.36,-0.36 19.38,-6.51 5.99,-3.68 14.08,-5.21 18.42,-8.16l35.68 -35.17c18.53,-23.16 7.64,-13.46 22.96,-37.2l13.95 -38.18c6.17,-19.28 8.21,-54.83 5.42,-74.93 -3.63,-26.15 -10.94,-36.79 -19.08,-59.33 -1.42,-3.92 -1.99,-6.85 -3.42,-9.59 -3.61,-6.93 -3.08,0.16 -5.29,-10.55 -2.24,-2.36 -2.81,-2.77 -5.09,-6.78 -4.58,-8.1 -10.86,-11.48 -17.62,-17.96l-26.28 -22.53c-3.12,-2.41 -4.74,-2.88 -8.33,-4.82l-6.97 -4.35c-15.6,-9.85 -35.91,-13.61 -53.23,-20.29 -5.87,-2.27 -11.94,-5.72 -16.81,-7.16 -14.38,-4.26 -47.51,-8.6 -63.28,-9.93 -45.52,-3.84 -133.03,3.43 -180.73,14.85l-29.56 8.14c-13.16,1.27 -24.97,6.64 -37.02,11.4 -2.31,0.91 -4.98,1.76 -8.26,3.06l-24.82 10.57c-11.8,8.53 -35.73,20.84 -49.39,26.24 -4.08,1.61 -3.97,0.86 -7.79,3.28l-27.44 21.25c-8.69,4.31 -6.09,5.28 -12.12,10.29 -5.96,4.95 -7.6,2.15 -15.21,9.27 -10.92,10.2 -12.89,10.11 -25.2,23.73 -5.64,6.23 -7.1,5.77 -13.53,10.87l-21.75 19.64c-0.27,0.27 -0.66,0.67 -0.93,0.94 -1.67,1.71 -1.25,1.23 -2.76,2.86 -12.18,13.12 -23.74,24.39 -34.56,38.69 -4.1,5.42 -5.27,10.82 -9.63,14.93 -8.79,8.27 -16.49,15.1 -23.56,25.25l-46.7 74.46c-7.72,8.14 -13.27,17.57 -18.58,27.79 -2.81,5.39 -5.33,10.79 -8.56,15.94l-35.13 62.57c-3.2,5.84 -4.77,10.45 -7.8,16.78l-16.2 32.61c-2.8,4.51 -2.37,2.3 -5.03,8.15l-63.77 141.32c-4.22,12.61 -11.47,21.25 -14.68,34.02 -9.29,37.09 -26.58,71.62 -40.65,105.99 -9.8,23.91 -16.96,48.41 -25.2,72.78l-25.3 72.54c-3.89,11.63 -8.27,24.59 -13.04,35.84 -10.97,25.93 -19.43,59.75 -33.29,88.7 -6.08,12.69 -22.99,69.44 -27.46,78.03 -13.13,25.24 -23.7,51.38 -35.14,77.62 -1.55,3.54 -5.81,11.72 -8.29,16.05 -9.89,17.27 -11.79,28.04 -23.31,50.01 -3.09,5.91 -3.72,11.6 -7.05,17.52l-17.26 31.44c-2.81,5.14 -4.62,11.41 -7.55,17l-33.51 64.29c-2.79,5.94 -4.21,11.96 -7.55,16.96l-18.97 29.97c-21.16,35.44 -56.02,79.19 -83.73,111.61l-34.16 39.19c-8.05,7.35 -16.79,18.21 -28.55,18.34 -1.14,-23.31 3.57,-33.72 8.58,-51.96 2.48,-9.05 5.46,-14.13 8.58,-21.23l9.96 -19.88c10.39,-15.93 44.09,-102.89 51.58,-129.44 4.13,-14.68 12.05,-28.14 18.1,-41.55l8.01 -21.99c4.54,-16.3 13.16,-32.24 16.38,-43.79 1.21,-4.37 1.08,-8.31 2.25,-13.02 7.01,-28.08 8.09,-15.83 16.02,-57.2l11.88 -48.38c5.44,-18.82 11.58,-68.62 14.24,-76.21 5.24,-14.93 13.15,-59.04 15.16,-74.82 7.2,-56.44 5.08,-118.05 4.62,-175.26 -0.34,-41.27 -2.65,-76.68 -11.7,-109.57 -6.06,-22.04 -19.65,-77.54 -26.44,-93.84 -1.45,-3.48 -2.65,-6.21 -4.04,-10.78 -5.92,-19.43 -14.99,-34.63 -21.27,-53.84 -3.68,-11.28 -4.8,-11.25 -10.88,-19.72 -5.55,-7.71 -7.3,-16.82 -16.99,-28.28 -2.38,-2.81 -1.22,-0.93 -3.23,-4l-1.3 -2.31c-0.21,-0.36 -0.44,-0.86 -0.64,-1.23l-22.81 -37.65c-5.61,-8.41 -11.12,-11.88 -16.36,-19.28l-10.45 -14.17c-13.3,-17.67 -25.03,-33.3 -42.72,-47.54 -28.85,-23.21 -33.85,-37.44 -67.05,-53.07l-40.18 -19.97c-10.55,-3.49 -13.13,-4.59 -21.54,-8.68 -13.4,-6.52 -28.11,-10.77 -44.28,-15.81 -5.77,-1.79 -6.59,-2.15 -11.07,-4.08l-45.8 -12.33c-4.69,-0.57 -9.95,0.02 -14.76,-0.59 -8.72,-1.1 -13.59,-4.55 -24.68,-5.33l-116.54 -3.8c-34.09,0.08 -50.77,3.35 -82.18,8.07 -11.51,1.73 -38.51,6.46 -48.96,11.14l-22.93 7.04c-17.7,3.63 -29.38,9.63 -47.16,13.13l-22.26 7.85c-10.24,4.9 -18.83,5.5 -26.33,9.47l-15.42 7.08c-22.8,12.7 -46.19,22.77 -67.99,37.28 -4.1,2.73 -5.5,4.05 -8.94,6.09l-18.66 11.44c-7.2,4.83 -11.25,5.23 -18.8,11.26l-67.76 52.63c-6.74,5.54 -9.84,8.19 -15.76,14.21 -5.41,5.5 -10.08,10.83 -13.95,16.14l-11.7 11.02c-0.32,0.25 -0.77,0.58 -1.08,0.83l-31.2 32.69c-12.02,10.21 -16.57,21.38 -26.62,33.45l-12.8 17.19c-2.22,3.18 -3.29,6.14 -5.27,9.7 -7.01,12.63 -15.38,21.48 -22.89,33.6 -24.8,39.96 -18.51,38.85 -35.2,74.02 -6.97,14.68 -3.88,11.9 -7.88,22.45 -5.59,14.71 -13.59,28.52 -15.5,44.72 -1.34,11.31 -8.9,38.44 -13.2,46.71 -17.31,33.35 -10.96,129 -8.79,165.78 1.09,18.54 1.82,22.13 6.41,38.13 1.1,3.84 2,8.45 2.87,12.03 15.4,63.59 18.16,66.63 53.42,125.93 16.32,27.45 43.16,54.02 50.59,66.24z"/>
   <path class="fil0" d="M3708.33 5765.79c-36.16,13.62 -100.02,-15.24 -79.33,24.7 10,19.3 56.51,1.94 68.71,2.68 23.22,48.57 -57.86,40.21 -72.86,35 -21.33,-7.42 -21.64,-10.5 -32.39,-29.45 -8.32,-14.65 -11.08,-34.19 -5,-53.87 10.71,-34.7 26.85,-55.61 72.9,-51.27 33.55,3.16 62.95,38.09 47.97,72.21zm260.72 -62.67c9.6,-1.12 19.35,-0.31 26.85,2.45 12.63,10.73 -3.79,70.59 19.23,99.01 27.81,0.99 33.43,-4.21 34.94,-34.08 1.43,-28.26 -7.12,-66.26 7.14,-69.21l26.14 -0.38c8.23,13.52 3.88,73.2 1,91.85 -6.69,43.23 -54.56,56.74 -93.51,36.47 -15.17,-7.9 -15.38,-13.04 -17.01,-32.46 -2.23,-26.6 -6.98,-67.33 -4.78,-93.65zm320.1 -7.2c12.18,-4.84 20.55,-2.32 32.21,0.08 1.29,12.45 3.95,11.94 4.03,27.36 0.19,42.44 -6.31,69.87 28.8,68.28 22.02,-0.99 20.78,-12.59 20.91,-43.79 0.06,-16.36 -2.86,-47.83 3.47,-59.73 8.47,-2.51 12.56,-2.58 22.57,-1.57 10.91,15.87 12.02,66.84 9.9,89.61 -5.34,57.38 -98.49,72.64 -115.59,13.83 -3.96,-13.59 -8.84,-79.18 -6.3,-94.07zm-559.83 130.91c-3.83,-62.56 -5.55,-62.88 -1.28,-124.13 12.14,-4.33 34.35,-0.55 48.64,-2.23 43.45,-5.1 21.07,0.6 44.06,1.09 4.55,-24.23 -4.05,-53.89 23.79,-54.89 16.44,3.16 12.44,37.89 13.06,46.73 2.04,28.73 29.68,-18.94 75.8,18.24 18.97,15.29 29.92,38.72 23.66,73.57 -4.25,23.67 -21.08,44.41 -47.31,50.64 -34,8.07 -30.59,0.36 -41.54,-2.52 -13.98,-3.67 -18.96,8.26 -41.36,3.6 -8.57,-35.55 -1.11,-78.29 -6.25,-116.16 -5.54,-0.74 -35.09,4.54 -42.01,6.3 -26.41,6.75 -18.79,49.89 -20.9,80.74 -0.9,13.25 2.23,24.79 -22.14,20.98l-6.22 -1.96zm490.91 1.43c-25.56,3.79 -34.51,-16.62 -53.52,-34.04 -6.45,-5.92 -12.42,-8.35 -23.19,-6.42 -5.87,13.06 -4.09,26.97 -10.86,41.13l-22.72 -1.59c-5.45,-24.35 -7.15,-151.94 -2.81,-178.05 6.23,-3.68 14.05,-4.59 23.91,-3.65 8.77,10.77 8.05,22.88 8.22,40.13 0.13,13.86 -1.78,36.66 4.26,47.24 22.64,1.24 14.4,-24.7 49.6,-36.79 12.69,-4.35 13.5,-2.68 22.47,2.03 3.29,39.27 -51,37.67 -28.13,65.86 14.04,17.29 50.98,36.72 32.77,64.15zm-966.16 -34.68l-2.25 -32.61c0.99,-10.6 2.98,-19.02 3.87,-30.03 7.63,-94.41 9.07,-48.5 68.54,-58.73 18.41,-3.17 41.3,2.89 48.35,17.31 7.76,15.86 5.42,93.57 -3.46,109.38l-4.1 5.83c-30.62,-0.56 -24.57,0.97 -20.85,-51.24 0.82,-11.39 1.82,-28.64 -1.95,-37.46 -4.43,-10.36 -8.38,-15.64 -27.32,-12.88 -14.43,2.1 -18.03,5.31 -20.68,19.29 -3.37,17.71 -5.63,63.65 -9.67,70.92 -4.78,8.6 -23.68,5.82 -30.48,0.22zm1363.32 -19.79c13.35,-1.91 8.18,-8.44 21.38,-9.57 3.39,11.47 4.03,20.68 1.81,35.1 -18.67,13.25 -50.21,14.39 -58.12,-27.97 -9.6,-51.4 6.72,-67.75 -35.65,-67.76 -0.21,21.83 0.67,47.54 2.85,68.39 2.21,20.99 5.78,48.71 -25.87,37.93 -4.55,-8.04 -6.95,-39.98 -7.88,-50.82 -1.45,-16.84 -1.15,-36.68 -8.5,-49.69 -28.54,-2.27 -46.32,-1.85 -47.17,28.99 -0.56,20.4 6.67,56.52 0.87,73.21 -6.96,2.91 -18.8,2.57 -28,1.25 -4.39,-9.11 -8.82,-115.51 -7.1,-130.67 17.29,-3.62 30.45,2.55 52.83,-3.45 12.34,-3.3 30.74,-11.31 45.03,-0.85 6.5,4.77 12.58,8.53 21.15,5.76 22.19,-7.19 31.85,-40.93 44.16,-41.03 22.39,7.25 26.79,34.4 54.54,32.35 8.99,-11.01 8.4,-16.87 27.64,-10.44 10.06,3.37 10.51,19.44 12.22,31.87 2.98,21.57 -0.09,64.19 20.64,67.4 69.22,10.75 4.43,-79.6 37.54,-107.75l4.29 -3.2c0.45,-0.31 1.75,-1.25 2.23,-1.53 3.97,-2.27 3.11,-2.21 8.26,-2.49 8.55,13.67 15.99,63.26 15.08,84.04 -0.75,17.15 -2.66,26.31 -9.53,39.16 -7.47,13.98 -11.89,17.7 -29.23,21.58 -13,2.91 -30.8,3.92 -45.49,1.95 -25.43,-3.39 -30.36,-40.67 -37.12,-61.65 -4.58,-14.21 -2.79,-29.46 -7.48,-43.43 -13.05,-1.13 -28.28,15.67 -30.03,27.83 -2.14,14.92 -1.6,45.22 4.65,55.49zm-1389.64 27.71c-23.96,0.8 -15.35,-2.53 -27.28,-7.85 -7.82,-3.5 -35.45,9.14 -62.65,0.39 -31.23,-10.03 -46.16,-78.28 -25.06,-102.91 3.87,-4.52 4.76,-5.63 8.57,-10.19 6.87,-8.2 19.33,-21.77 31.08,-23.25 35.68,-4.52 37.27,7.75 63.99,8.21 38,0.64 35.18,-16.18 20.03,108.04 -1.5,12.36 -1.61,19.95 -8.68,27.56zm259.55 -115.99c-2.82,20.64 11.22,20.83 25.22,27.68 13.75,6.72 22.23,9.86 36.69,15.54 13.42,5.27 23.97,11.15 25.95,27.03 5.29,42.39 -4.28,53.07 -36.54,67.56 -38.24,17.18 -111.19,-11.03 -86.06,-51.82 9.65,-0.95 11.33,0.87 18.06,4.38 21.39,11.12 52.76,24.3 68.74,1.41 1.43,-2.06 2.63,-3.18 3.2,-5.99 2.03,-10 -6.4,-10.43 -14.48,-15.36 -29.88,-18.24 -15.28,-1.29 -50.53,-20.75 -11.57,-6.39 -20.89,-8.39 -22.78,-24.87 -5.48,-47.97 12.49,-72.07 73.89,-67.86 11.38,0.78 27.17,5.57 35.66,11.61 11.18,7.96 12.11,18.57 11.55,35.98 -22.15,2.39 -58.59,-27.77 -88.57,-4.54zm-573.55 75.43c-9.74,0.99 -19.56,1.68 -29.02,-0.99 -2.27,-21.02 2.35,-47.29 5.77,-67.41 14.67,-86.2 16.16,-57.86 49.54,-58.39 13.59,-0.21 19.44,-5.21 33.91,-4.13 20.17,1.52 35.84,23.21 48.83,23.9 6.75,-4.5 5.72,-6.69 11.28,-11.12 16.93,-2.1 32.82,-0.41 45.37,5.35 14.35,6.59 11.6,19.9 13.13,37.42 2.9,33.25 -2.52,60.38 -4.98,93.4 -58.5,35.14 -15.04,-86.11 -35.77,-101.55 -18.83,-14.02 -39.46,14.59 -43.02,30.13 -5.18,22.65 -4.28,48.42 -13.26,67.45 -31.39,2.88 -27.44,-22.28 -23.31,-47.37 1.59,-9.72 2.72,-24.56 3.76,-34.33 2.42,-22.76 -14.63,-44.67 -36.75,-23.38 -7.38,7.1 -11.33,13.71 -13.44,25.84 -3.41,19.58 -4.33,49.87 -12.04,65.18zm-54.88 -139.4c34.06,-1.19 26.54,26.21 21.03,62.24 -2.36,15.38 -13.38,58.57 -28.97,63.4 -23.46,7.27 -60.97,3.55 -77.49,-7.51 -28.71,-19.23 -13.24,-119.7 0.79,-127.67 3.45,-1.96 14.92,-4 20.08,-0.61 9.67,6.37 -2.04,71.76 -1.3,85.77 0.85,16.2 7.83,21.29 24.83,20.74 17.6,-0.57 19.11,-7.16 22.91,-22.26l10.05 -57.9 8.07 -16.2zm2460.56 39.81c5.48,34.11 41.23,5.4 78.59,7.14 2,31.13 -6.9,32.52 -33.71,40.01 -64.04,17.9 -102.45,-23.18 -87.97,-90.76 4.42,-20.61 14.26,-31.28 32.87,-41.29 26.15,-14.07 66.5,-0.63 81.87,20.07 5.67,7.63 7.18,19.61 6.74,31.04 -1.28,33.12 -62.88,13.4 -78.39,33.79zm-515.88 -66.68c18.37,25.62 10.11,79 24.45,92.33 10.19,-1.9 17.15,-16.66 19.45,-19.46 3.81,-4.66 2.45,-1.15 7.29,-7.49 4.71,-6.17 6,-9.46 13.43,-13.14 7.68,-3.79 21.01,-4.14 24.08,-0.6 18.68,21.48 -55.62,56.25 -5.17,80.01 6.68,3.14 9.12,5.75 14.69,9.62 11.27,7.81 11.88,26.31 4.95,37.8 -15.75,1.13 -25.07,-4.41 -39.1,-14.73 -18.82,-13.84 -21.97,-21.16 -33.98,-21.24 -16.44,19.35 14.94,54.69 -34.68,46.72l-18.45 -155.11c-0.72,-8.91 -1,-18.57 3.8,-24.98 3.62,-4.83 11.51,-10.35 19.24,-9.73zm-2154.37 121.93c-7.1,3.45 -26.01,8.61 -33.8,2.58 -8.54,-7.74 3.04,-61.71 5.15,-70.71 19.13,-81.71 13.65,-62.92 44.29,-53.7 10.02,3.01 17.87,-1.36 28.7,-2.83 18.57,-2.51 34.78,4.88 44.16,19.76 10.62,16.86 2.49,103.53 -4.69,121 -14.16,3.01 -18.88,0.79 -30.75,-0.78 -3.92,-64.77 23.35,-103.89 -14.07,-105.09 -14.09,-0.45 -18.78,-0.52 -24.15,8.68 -9.95,17.05 -13.22,60.76 -14.84,81.09zm2520.58 40.66c0.39,-0.3 1.01,-1.22 1.2,-0.86 0.18,0.34 0.92,-0.68 1.17,-0.87l9.26 -6.08c6.67,-4.1 5.69,-5.56 11.41,-9.36 20.63,-0.88 12.39,10.23 32.7,6.51 1.88,-6.1 3.43,-7.08 1.95,-14.55 -50.41,-6.87 -72.53,27.84 -84.82,-78.77 -2.77,-24.01 -6.62,-34.76 3.23,-48.21 25.5,-0.94 23.95,9 30.98,36.49 4.1,16.01 4.66,45.15 12.2,57.08 7.81,1.72 23.43,1.35 31.53,-0.02 8.42,-1.42 7.84,-1.24 8.84,-8.79 1.81,-13.69 -5.34,-62.96 -6.3,-77.54 -2.17,-32.9 39.12,-41.36 43.03,45.27 0.47,10.31 -0.22,21.53 0.82,31.72 1.44,14.03 18.85,45.45 -10.81,76.84 -20.36,21.54 -70.3,22.75 -77.65,16.72 -6.4,-5.25 -9.28,-15.57 -8.74,-25.58zm-2575.72 -45.41c-13.67,2.35 -20.53,1.86 -28.37,-5.37 -0.43,-18.65 18.94,-114.37 24.55,-127.89 12.92,-0.93 13.17,1.58 23.61,4.62 6.01,30.12 -11.87,115.6 -19.79,128.64zm2539.79 26.6c-6.21,5.58 -8.97,7.54 -19.73,5.95 -16.42,-2.42 -34.67,-25.89 -48.37,-36.7 -12.92,-10.19 -46,-49.23 -56.1,-52.95 -1.1,28.64 10.37,87.42 5.29,101.38 -1.9,5.22 -19.44,3.81 -23.57,1.42 -6.3,-3.64 -6.92,-12.35 -8.64,-20.4 -3.41,-16 -5.19,-29.6 -7.45,-48.56 -2.46,-20.67 -17.16,-83.79 -5.11,-97.66 9.87,-11.36 20.28,-3.02 33.71,7.44 25.77,20.06 73.52,77.95 87.97,78.79 2.62,-30.23 -4.41,-49.5 -6.78,-75.92 -2.61,-28.95 16.28,-38.17 24.12,-29.44 2.01,2.23 6.23,11.88 7.34,14.9 5.77,15.74 18.48,131.88 17.32,151.75zm314.73 -133.51c0.08,33.52 10.56,53.2 8.86,82.4 -6.26,3.14 -14.06,5.01 -23.92,3.83 -11.41,-6.03 -29.53,-113.25 -27.55,-127.6 9.42,-3.79 18.02,-4.15 28.62,-6.52 12.47,-2.8 15.5,-5.93 25.43,-10.02 2.98,-1.23 58.68,-9.55 61.88,-9.54 11.76,12.75 14.67,46.04 19.91,72.15 8.92,44.49 14.36,60.43 -21.79,58.61 -4.24,-7.58 -22.9,-88.8 -23.72,-97.75 -18.36,-0.7 -17.35,5.04 -31.23,9.2 -14.11,4.23 -16.53,7.68 -16.49,25.24zm-2822.32 -66.06c2.17,15.09 4.03,20.21 -11.31,20.38 -8.84,0.1 -22.67,1.21 -25.96,-5.89 -10.94,-23.6 26.09,-19.95 37.27,-14.49zm-79.96 164.7c-13.17,1.13 -22.45,-0.42 -30.29,-5.44 -3.8,-30.24 12.18,-57.97 11.74,-88.92 -18.45,1.58 -18.61,11.39 -29.34,26.2l-4.94 6.15c-0.39,0.37 -1.55,1.37 -1.98,1.69 -11.09,8.34 -34.83,4.9 -41.7,-23.83 -1.73,-7.26 -7.14,-31.9 -13.69,-34.82 -9.44,5.26 -11.68,32.5 -14.45,43.55 -2.98,11.88 -5.68,40.52 -9.99,47.73 -10.03,1.11 -21.21,-0.04 -27.74,-3.56 -2.96,-27.35 5.48,-55.22 11.13,-78.42 6,-24.61 6.35,-52.76 16.21,-73.91 15.56,-33.36 27.2,-16.59 41.75,11.9 9.79,19.17 16.38,44.53 26.02,63.91 12.18,-2.16 53.04,-47.24 64.64,-58.16 10.73,-10.1 20.81,-7.31 33.96,-4.73 2.23,21.44 -22.66,159.22 -31.33,170.66zm3322.85 -244.19c1,-0.38 -0.72,-0.81 4.69,-1.46 2.87,-0.34 6.96,0.01 10.16,2.99 6.78,6.32 12.57,31.88 13.95,41.06 5.23,34.77 9.17,30.6 13.51,42.41 18.84,51.27 -9.69,33.04 -53.79,54 -1.83,0.87 -5.28,2.17 -6.68,2.73 -14.08,5.63 -30.59,5.13 -43.53,-3.4 -1.4,-0.93 0.08,-0.34 -3.37,-2.16l-2.61 -1.14c-10.11,-4.81 -16.91,-10.47 -22.59,-22.81 -13.92,-30.23 -15.51,-60.02 5.44,-87.81 9.8,-13 6.39,-8.45 22.61,-13.72 19.03,-6.18 41.35,-2.85 62.21,-10.69zm-387.29 54.25l-0.16 -16.03c47.15,-20.01 51.03,33.82 8.48,20.74 -4.77,-1.47 -3.23,-2.21 -8.32,-4.71zm547.26 -106.15c2.53,-13.92 -2.03,-27.21 -0.02,-39.56 2.01,-12.39 22.4,-18.21 34.32,5.93l30.3 102.92c1.72,5.55 5.74,27.66 6.1,34.05 1.12,20 -0.55,17.08 -10.03,28.04 -52.07,0.32 -40.05,25.43 -75.55,16.01 -12.67,-3.37 -26.56,-4.96 -34.64,-12.74 -3.31,-3.19 -7.8,-8.35 -10.11,-12.87 -13.42,-26.21 -15.85,-26.03 -14.51,-56.06 1.02,-22.98 8.49,-28.45 20.7,-40.66l5.76 -5.59c21.32,-17.17 36.09,-12.92 47.68,-19.47zm-397.05 236.03c-10.28,-5.66 -12.32,-26.07 -14.28,-36.99 -4.62,-25.73 -36.44,-113.39 -23.5,-126.68 9.8,-10.86 30.41,1.28 35.03,8.39 6.77,10.4 4.04,28.99 8.67,42.13 11.93,0.72 28.77,-2.16 40.28,-3.41 13.93,-1.52 28.21,-2.24 30.38,-14.37 2.8,-15.64 -16.84,-14.48 -5.66,-52.35 1.4,-4.74 13.2,-17.83 26.35,-6.24 0.29,0.26 0.7,0.64 0.98,0.9 9.28,8.57 14.57,26.44 17.52,46.44 3.65,24.68 11.86,47.51 16.38,71.46 2.26,11.93 7.13,22.05 4.78,37.24 -2.18,14.09 -14,19.01 -23.84,15.62 -24.5,-8.43 6.71,-79 -66.37,-62.96 -11.31,2.48 -23.28,5.98 -26.05,18.59 -2.87,13.08 0.9,28.22 1.21,40.5 0.22,8.42 1.7,17.39 -1.97,21.19 -3.99,4.12 -15.45,2.61 -19.91,0.54zm298.69 -193.67c7.09,5.13 9.55,16.57 11.67,24.86 7.16,28.03 2.83,10.05 9.46,27.84 5.26,14.08 10.39,53.22 4.1,70.13 -6.61,3.03 -5.03,3.19 -14.43,3.68 -9.18,-22.87 -6.41,4.88 -27.13,-67.4 -3.95,-13.77 -16.01,-51 -5.12,-58.35 1.9,-1.28 7.44,-2.55 9.39,-2.7l8.92 0.82c0.53,0.13 1.18,0.42 1.59,0.53 0.41,0.12 1.05,0.35 1.55,0.59zm-3.05 -22.06c-60.31,18.66 -39.51,-52.25 -9.53,-25.45 8.1,7.25 11.7,12.14 9.53,25.45zm-3656.76 18.17c-3.44,6.85 -21.93,23.94 -29.2,32.35 -8.22,9.51 -10.84,8.38 -15.03,18.8l-19.56 65.03c-0.72,3.17 -0.74,6.56 -1.34,10.02 -19.21,109.89 20.17,125.11 25.07,154.92 12.07,15.65 20.21,31.33 33.72,45.6 3.3,3.49 6.5,7.88 9.94,10.82 3.31,2.84 2.06,1.54 5.65,3.93l5.46 3.85c43.18,34.49 79.17,44.33 137.77,57.87l33.97 5.81c12.01,1.92 22.24,4.02 33.38,5.86 11.2,1.86 24.33,2.35 34.89,4.74 42.09,9.53 122.26,21.84 165.1,28.71 34.4,5.51 69.5,8.48 103.8,14.98 5.96,1.14 10.26,1.14 17.29,1.98 6.53,0.79 6.31,1.96 14.48,3.49 9.97,1.87 23.82,2.07 35.23,4.16 11.08,2.04 24.42,2.32 35.73,4.06 57.49,8.87 116.87,10.56 174.84,20.82 11.66,2.06 21.25,2.32 33.81,4.02 36.59,4.95 70.96,6.62 106.35,12.1 10.24,1.59 24.33,2.01 34.4,3.14l142.78 14.26c23.24,0.21 51.91,1.6 74.74,4.25 25.2,2.92 53.35,1.97 73.13,4.44 48.87,6.09 99.52,6.35 149.24,6.83l464.39 0.95c26.08,-0.22 53.01,-0.29 77.42,-2.06 37.29,-2.7 70.98,-7.96 106.93,-9.17l112.87 -4.72c13.04,-0.17 23.79,-1.34 37.66,-1.83l54.36 -4.97c7.62,-0.11 11.83,-0.85 17.59,-1.44l110.34 -8c23.42,-0.53 46.2,-6.17 69.61,-7.17 22.36,-0.97 50.98,-3.97 72.68,-6.86 11.75,-1.57 26.03,-1.71 36.86,-3.01 13.01,-1.57 20.96,-2.73 32.86,-4.82 34.39,-6 69.93,-7.42 105.25,-13.29l66.16 -10.74c6.55,-1.32 12.33,-0.98 18.8,-2.12 4.48,-0.79 9.89,-2.87 14.54,-3.73l333.58 -55.68c18.26,-1.66 33.03,-6.98 50.67,-9.68 6.14,-0.94 8.77,-2.32 14.95,-3.97 42.91,-11.5 86.6,-15.03 128.94,-27.08 11.62,-3.3 25.39,-4.91 36.13,-9.31 12.5,-5.12 41.84,-8.84 57.59,-13.85 42.5,-13.51 82.88,-16.07 115.86,-26.91l11.45 -1.34c10.44,-0.84 11.21,-4.67 31.54,-7.92 12.12,-1.93 22.16,-5.37 31.61,-8.08 9.8,-2.8 20.44,-4.2 30.74,-6.97 17.87,-4.81 44.67,-14 62.26,-16.3 12.13,-1.59 19.25,-6 31.84,-7.87 20.66,-3.05 83.66,-24.29 105,-32.58 4.2,-1.63 9.5,-3.65 13.51,-5.55l52.58 -34.14c0.32,-0.25 0.73,-0.62 1.04,-0.88 30.62,-25.64 51.92,-63.03 65.61,-100.62 8.7,-23.91 4.99,-16.95 10.51,-38.18 9.03,-34.66 -1.93,-77.95 -11.37,-110.69 -5.19,-17.99 -16.94,-36.63 -24.38,-52.87 -2.98,-2.03 -3.42,-2.63 -5.44,-5.14l-4.63 -6.65c-29.81,-46.74 -38.23,-36.93 -48.19,-47.98 -17.43,-19.34 -17.67,-2.16 -28.56,-22.5 -4.54,-2.38 -9.08,-1.29 -15.08,-3.37 -24.83,-8.58 -16.64,-1.39 -39.29,-11.39 -7.83,-3.46 -19.22,-4.26 -29.23,-6.4 -26.48,-5.67 -67.59,3.78 -92.43,8.85 -43.27,8.82 -92.69,28.42 -133.9,36.63 -11.09,2.21 -17.19,3.61 -27.3,6.62 -17.91,5.33 -38.31,8 -55.82,13.9l-139.92 33.38c-8.75,1.81 -20.39,3.12 -28.75,5.22 -16.1,4.03 -57.28,11.14 -69.77,16.09l-98.77 21.69c-7.73,2.4 -20.23,4.29 -28.69,5.37 -23.48,2.98 -16.22,3.92 -27.08,6.49 -9.99,2.37 -20.97,2.53 -31.17,4.74l-28.33 5.43c-9.87,1.15 -18.25,4.15 -27.52,6.11 -9.51,2.01 -20.36,2.05 -30.21,3.89 -10.91,2.03 -20.92,2.32 -31.65,4.34 -17.26,3.24 -10.96,4.28 -26.7,6.72 -11.77,1.83 -20.34,2.69 -30.86,4.89l-29.4 4.58c-22.03,3.21 -36.92,7.24 -60.89,9.02l-57.8 9.54c-51.56,9.51 -132.18,15.7 -184.21,22.74 -18.99,2.57 -40.74,5.68 -59.47,7.76 -20.12,2.24 -47.42,1.07 -66.22,4.25 -11.19,1.9 -6.17,3.15 -27.61,5.28 -5.48,0.55 -10.77,0.22 -16.2,0.95 -38.87,5.25 -39.56,4.6 -81.21,5.36 -23.34,0.42 -40.64,4.31 -62.05,5.2 -85.77,3.55 -169.96,12.91 -259.49,14.56 -92.37,1.71 -178.21,7.47 -268.91,8.86 -91.21,1.4 -177.61,-5.64 -267,-7.58 -46.11,-1.01 -90.48,-2.16 -135.45,-4.27 -19.98,-0.94 -44.34,-2.06 -65.09,-4.13l-124.84 -11.87c-24.37,-1.63 -39.24,-2.85 -61.44,-6.19 -27.84,-4.19 -71.69,-3.97 -81.03,-5.67 -30.51,-5.54 -23.04,-1.03 -47.35,-3.31 -41.62,-3.89 -85.57,-6.12 -127.4,-11.61 -11.28,-1.48 -21.56,-3.84 -30.83,-4.68 -5.45,-0.5 -11.53,-0.04 -16.84,-0.58 -11.81,-1.22 -4.13,-2.06 -13.29,-3.23l-62.97 -5.4c-11.29,-1.61 -22.61,-0.67 -33.76,-2.3l-42.35 -7.97c-30.85,-5.31 -74.11,-9.53 -104.65,-16.16 -5.64,-1.23 -4.68,-2.55 -12.53,-4.07 -5.31,-1.03 -9.77,-0.89 -15.08,-1.95l-250.17 -41.11c-5.52,-1.09 -10.12,-0.5 -15.6,-1.52 -34.65,-6.44 -88.16,-4.33 -121.29,9.59 -56.88,23.89 -56.3,36.65 -81.91,55.59z"/>
   <path class="fil0" d="M4157.39 4507.16c18.77,-4.1 34.97,-0.12 50.2,7.11 15.81,7.51 19.81,13.71 30.81,29.27 13.24,18.74 9.06,84.45 3.16,106.47 -8.64,32.19 -21.33,58.82 -38.65,81.63 -35.64,46.94 -103.6,60.06 -146.99,22.49 -26.95,-23.33 -25.14,-100.12 -20.42,-128.3 4.8,-28.59 21.92,-65.46 40.41,-79.37 17.36,-13.07 16.11,-15.17 35.23,-25.04 17.6,-9.08 25.23,-9.68 46.25,-14.26zm995.66 326.92c26.93,7.46 69.22,50.29 44.23,96.56 -25.32,46.88 -81.03,33.13 -120.21,9.5 -23.4,-14.11 -32.51,-23.21 -52.74,-41.14l-41.59 -35.73c-10.2,-8.11 -19.07,-20.37 -30.31,-27.92 -4.52,-3.04 -7.07,-4.86 -11.08,-7.63 -7.76,-5.36 -17.29,-8.37 -25.25,-14.23 -14.44,-10.64 -31.01,-19.22 -51.39,-23.45 -20.68,-4.29 -54.88,-2.58 -71.87,2.94 -22.42,7.27 -32.19,12.26 -50.54,26.7 -9.81,7.72 -12.69,8.62 -20.42,17.21 -6.24,6.94 -11.45,15.47 -15.51,23.64 -14.09,28.36 -10.42,65.78 -45.64,70.27 -30.6,3.89 -69.64,-5.62 -82.65,-35.07 -15.96,-36.11 4.03,-130.64 8.09,-174.55l6.73 -51.31c3.48,-13.83 3.88,-34.92 8.63,-49.39 4.74,-14.42 8.86,-49.37 10.5,-66.67 1.13,-11.85 3.51,-20.81 5.91,-31.16l19.48 -132.6c3.22,-30.03 10.46,-79.53 -5.9,-102.41l-22.43 -24.51c-0.25,-0.2 -0.7,-0.53 -0.97,-0.72l-2.25 -1.14c-24.69,-11.83 -58.06,-15.24 -87.31,-10.3l-32.81 7.88c-0.4,0.17 -0.89,0.39 -1.29,0.56l-49.82 21.76c-0.36,0.21 -0.84,0.5 -1.21,0.72l-87.35 64.66c-9.38,7.96 -12.12,14.64 -27.05,9.86 -0.49,-0.16 -0.92,-0.4 -1.39,-0.57 -6.01,-2.16 -9.17,-2.68 -13.74,-5.61 -13.97,-8.95 -30.9,-23.31 -46.47,-30.66l-54.37 -23.58c-56.79,-14.87 -50.1,-15.81 -119.79,-13.96 -8.76,0.23 -26.22,2.15 -33.86,4.13 -25.58,6.61 -51.76,9.36 -75.96,20.31 -6.61,2.98 -7.77,3.06 -15.02,5.83 -7.26,2.77 -18.02,9.66 -23.88,13.68 -10.93,7.5 -24.79,12.28 -36.56,19.9 -4.39,2.84 -6.56,4.26 -11.01,7.74 -5.54,4.35 -6.1,3.41 -12.08,6.96 -10.26,6.08 -35.72,29.67 -46.72,39.65 -2.43,2.21 -4.27,3.04 -6.44,4.86 -3.44,2.88 -4.76,7.23 -7.85,10.81 -2.5,2.91 -6.91,5.51 -10.11,8.75l-18.41 21.14c-1.51,1.67 -3,2.95 -4.6,4.75l-47.41 56.17c-18.65,32.2 -41.64,62.16 -58.39,95.32 -4.42,8.74 -7.44,18.9 -11.69,28.17 -12.56,27.34 -13.07,21.14 -22.17,54.81 -5.35,19.78 -13.1,39.52 -17.14,59.86 -4.6,23.16 -8.96,41.94 -13.13,63.8 -5.67,29.72 -9,116.99 -3.98,146.42 3.91,22.85 2.32,47.41 7.42,69.93 2.03,8.94 5.39,18.76 8.8,28.44 13.61,38.72 14.44,45.81 35.94,80.73 10.79,17.54 49.45,57.11 65.89,66.1 4.15,2.27 8.69,4.16 13.51,7.16 37.39,23.27 73.54,38.52 121.17,33.65 8.03,-0.82 25.78,-3.15 32.98,-4.94l27.31 -10.49c10.45,-4.88 22.23,-8.28 32.54,-14.69l43.31 -24.27c10.06,-6.07 15.91,-8.5 23.73,-16.12l19.75 -17.83c7.25,-6.9 14.54,-11.93 20.67,-18.9l50.67 -63.79c9.34,-9.68 14.92,-23.03 23.76,-34.93 1.34,-1.81 3.76,-4.95 4.05,-5.32l16.12 -21.44c5.77,-7.46 10.98,-15.2 18.12,-21.03 72.84,-59.4 -14.16,83.99 113.05,178.35 29.89,22.17 43.93,21.67 79.59,31.26 33.28,8.95 66.2,1.33 98.11,-5.67 14.99,-3.29 32.21,-6.24 43.3,-12.99l37.27 -16.89c7.86,-3.22 13.86,-3.77 21.45,-7.17 27.63,-12.38 30.09,-12.34 54.03,-28.56l84.5 -55.09c21.21,-10.9 19.26,-16.92 39.24,-5.15l49.58 35.15c8.69,6.85 5.59,5.49 16.8,11.12 6.03,3.02 12.44,5.81 19.51,8.78 18.63,7.82 66.36,20.33 66.44,20.37 36.53,18.02 146.15,18.49 184.32,15.68 64.54,-4.76 71.83,-9.45 124.06,-16.9 13.9,-1.98 54.13,-15.23 66.5,-19.7 14.31,-5.17 26.5,-10.87 39.76,-16.69 18.89,-8.29 29.14,-17.07 45.68,-25.58l26.96 -16.25c7.25,-4.83 10.07,-7.03 18.54,-10.33l23.93 -18.35c3.78,-4.35 5.16,-4.97 7.72,-7.54 8.51,-8.56 18.95,-19.65 25.59,-30.43 4.55,-7.38 7.05,-9.8 12.14,-16.16 10.04,-12.54 26.09,-38.86 30.86,-53.7 3.33,-10.35 9.95,-18.73 13.74,-29.29 6.08,-16.95 13.85,-38.55 14.54,-55.87 2.26,-57.24 2.15,-74.95 -14.3,-129.96 -3.61,-12.07 -22.58,-42.54 -30.71,-53.43l-13.42 -14.57c-12.5,-14.62 -27.57,-29.83 -44.04,-40.24 -17.62,-11.14 -33.82,-23.3 -52.84,-33.54 -34.68,-18.67 -71.13,-35.27 -106.37,-52.29l-9.09 -7.06c-8.98,-5.12 -18.78,-8.43 -27.79,-13.96l-26.42 -16.75c-20.08,-13.65 -35.69,-17.59 -40.83,-45.62 -11.52,-62.92 61.48,-66.3 96.97,-42.63 13.07,8.72 16.47,4.43 41.76,24.18l49.88 36.78c25.14,14.3 43.08,24.46 71.95,35.25 29.74,11.12 74.01,-1.59 96.83,-22.92 2.39,-2.23 0.57,-0.6 1.88,-1.96 32.37,-33.63 16.83,-22.76 27.3,-38.6l1.64 -2.19c0.24,-0.4 0.54,-0.85 0.75,-1.28 0.27,-0.54 1.41,-3.9 1.59,-4.52 8.91,-30.06 8.42,-49.9 -3.15,-81.3 -4.74,-12.85 -15.59,-31.66 -25.07,-41.47l-16.94 -15.19c-2.98,-2.24 -2.63,-1.59 -5.85,-3.74l-25.02 -18.18c-22.68,-13.37 -47.78,-25.55 -73.19,-34.12 -85.66,-28.9 -241.14,-33.99 -323.3,-3.67l-77.13 30.29c-11.32,5.6 -14.04,11.18 -28.2,14.66 -26.26,6.44 -68.86,44.66 -84.92,66.39 -8.99,12.16 -12.76,14.28 -26.9,35.19 -3.9,5.77 -6.32,7.16 -9.72,12.9l-15.14 28.56c-8.65,21.39 -5.67,-2.21 -15.74,48.57 -0.61,3.11 -6.34,13.35 -7.33,23.22 -3.48,34.65 4.1,74.43 13.59,104.51l10.68 21.4c3.47,5.45 1.25,0.76 4.82,6.35 9.77,15.34 12.14,24.54 26.39,37.81 17.2,16 18.08,19.27 40.27,36.85 0.31,0.25 0.76,0.58 1.07,0.82l4.46 3.06c8.47,6.54 10.79,11.74 22.2,19.14l26.65 16.64c12.98,8.93 28.33,16.2 39.73,26.02l146.24 84.93z"/>
   <path class="fil1" d="M6247.86 3908.82c22.53,-13.07 73.87,-56 93.56,-73.73l21.83 -19.47c8.24,-9.06 17.61,-13.73 21.77,-19.42 11.17,-15.28 5.62,-5 16.19,-15.97l7.78 -12.48c0.11,-0.57 -1.68,-0.93 3.58,-6.01 20.88,-20.14 22.82,-19.13 58.86,-5.1l48.46 19.17c4.81,2.51 5.97,2.22 11.48,3.79l46.61 20.7c29.53,12.28 67.02,21.8 98.26,39.09 17.65,9.76 40.27,16.52 55.76,27.02 19.57,13.26 46.83,25.31 69.3,39.76 21.72,13.96 47.03,27.2 69.24,41.76 56.75,37.22 133.04,109.85 168.66,162.26 32.81,48.28 52.89,86.15 71,148.86 17.36,60.11 17.08,138.42 3.33,199.97 -20.41,91.37 -101.98,211.62 -163.31,278.25 -43.66,47.43 -180.14,169.06 -237.31,202.9l-33.76 22.49c-25.08,20.2 -30.31,20.94 -48.07,34.59 -15.7,12.05 -19.51,8.28 -35.42,21.01l-173.47 101.31c-14.12,6.23 -9.4,5.25 -17.88,10.12 -26.9,15.46 -73.24,34.71 -101.36,49.18 -18.5,9.52 -28.77,11.93 -39.62,16.85 -2.95,1.33 -6.14,3.37 -8.47,4.57l-32.88 16.05c-26.88,9.54 -3.87,2.5 -22.97,10.94 -11.12,4.92 -44.92,28.94 -51.28,29.8 10.89,20.34 11.13,3.16 28.56,22.5 9.96,11.05 18.38,1.24 48.19,47.98l4.63 6.65c2.02,2.51 2.46,3.11 5.44,5.14 -3.81,-10.06 -9.33,-8.59 -9.92,-22.69l48.79 -18.95c16.12,-5.2 32.22,-11.03 49.13,-16.4 34.24,-10.88 156.47,-55.03 194.66,-72.92 12.28,-5.75 30.73,-16.77 46.33,-19.98 11.32,-2.34 14.18,-6.05 23.1,-10.28 68.24,-32.34 132.46,-56.56 204.44,-92.3l175.18 -90.01c95.75,-50.16 247.53,-141.51 328.71,-203.37 34.12,-26 40.14,-29.43 74.82,-58.74 102.24,-86.43 181.81,-169.83 239.31,-290.96 51.85,-109.22 49.68,-211.77 -3.84,-319.29 -24.2,-48.63 -78.95,-120.08 -115.38,-149.71 -12.78,-10.38 -24.16,-19.13 -38.07,-29.83 -17.24,-13.27 -28.49,-19.01 -39.01,-26.85l-101.81 -63.56 -90.58 -43.21c-6.16,-2.62 -14.3,-8.07 -20.96,-10.73l-24.02 -9.98c-47.53,-21.23 -119.96,-45.88 -170.4,-61.18l-130.07 -37.33c-30.81,-7.12 -40.13,-15.12 -79.9,-18.52 -13.47,-1.15 -16.08,-4.21 -26.04,-7.25l-110.18 -23.56c-22.26,-4.44 -16.49,-4.5 -29.55,-7.71l-24.4 -3.96c-40.18,-4.27 -48.04,-5.74 -90.51,-6.8 -1.63,-17.34 -3.97,-14.95 2.98,-29.92 3.09,-6.64 9.04,-19.71 9.69,-28.07l-13.5 25.82c-4.21,14.83 -7.61,31.61 -17.1,43.62 -3.48,4.41 -4.19,6.09 -6.82,11.83 -14.83,32.46 -5.46,11.95 -16.98,28.22l-3.7 5.65c-0.2,0.35 -0.49,0.81 -0.68,1.16 -3.29,6.03 -10.32,37.59 -35.04,51.71 -13.44,7.68 -3.36,5.31 -17.11,20.43 -10.27,11.29 -15.72,13 -26.45,26.1 -29.45,35.93 -25.61,30.43 -63.2,61.17 -0.29,0.23 -0.74,0.56 -1.02,0.81 -0.27,0.23 -0.71,0.57 -0.97,0.82 -18.21,16.94 -34.73,33.88 -56.59,48.84l-20.03 17.35z"/>
   <path class="fil1" d="M2230.87 5727.08c-4.9,-29.81 -44.28,-45.03 -25.07,-154.92 0.6,-3.46 0.62,-6.85 1.34,-10.02l19.56 -65.03c4.19,-10.42 6.81,-9.29 15.03,-18.8 7.27,-8.41 25.76,-25.5 29.2,-32.35 -9.33,10.79 -19.1,19.33 -28.53,29.13 -11,11.43 -12.33,14.62 -38.83,1.32l-160.87 -92.87c-39.77,-24.57 -44.88,-29.06 -82.57,-58.49 -9.86,-7.7 -19.74,-18.23 -29.52,-26.91 -59.31,-52.68 -111.25,-116.38 -141.18,-197.34 -21.87,-59.14 -30.72,-128.23 -24.08,-197.28 2.86,-29.76 13.49,-64.24 22.37,-90.04l36.08 -76.85c22.29,-43.3 33.51,-43 5.13,-74.02 -33.19,-36.28 -70.67,-87.54 -92.71,-133 -13.49,-27.84 -26.39,-64.54 -33.71,-79.12 -10.44,0.39 -34.16,12.63 -42.54,19.23 -3.26,2.57 -2.02,2.29 -6.08,5.14l-17.27 12.63c-7.82,3.74 -7.03,1.92 -13.81,7.11 -27.74,21.23 -43.52,29.79 -71.65,52.48 -7.44,6 -15.65,13.07 -22.93,18.49l-116.31 109.21c-3.38,3.9 -6.91,6.85 -10.14,10.53l-36.44 46.31c-3.51,4.36 -6,8.08 -8.56,12.39 -2.98,5.02 -4.52,6.26 -7.91,10.73 -43.2,56.94 -93.37,155.9 -101.41,227.51 -4.48,39.82 0.02,112.91 10.95,149.59 24.42,81.89 70.6,141.59 130.36,198.46 46.6,44.35 137.32,104.44 194.95,134.01 67.13,34.45 111.34,47.3 172.51,73.88 19.54,8.49 38.18,16.36 58.58,24.49 61.26,24.38 122.25,41.25 186.24,59.89 37.27,10.86 65.06,15.31 97.97,24.11 16.29,4.35 99.22,17.34 102.19,20.31l29.66 60.09z"/>
   <path class="fil2" d="M5572.66 3654.31l-57.38 91.85c-4.56,7.37 -9.32,16.44 -13.21,24.48 -4.62,9.51 -8.54,16.08 -12.53,25.13 -5.35,12.16 -15.3,26.04 -20.23,35.68 -8.1,15.85 -15.49,48.69 -23.14,69.17 -12.99,34.79 -43.55,145.23 -45.17,177.84 14.46,-7.07 46.26,-56.1 61.74,-72.72 80.2,-86.12 193.37,-173.44 298.3,-232 34.48,-19.24 97.78,-45.54 137.96,-61.12 8.4,-3.26 17.83,-5.04 25.89,-8.3 22.09,-8.96 117.2,-35.45 128.54,-30.59l-128.6 68.28c-125.34,65.62 -241.43,149.9 -344.81,243.73 -20.49,18.6 -117.11,119.54 -118.52,143.06 6.37,10.3 41.21,26.26 53.42,31.4 33.22,13.99 32.03,18.24 53.83,-7.15l81.83 -87.35c38.38,-36.62 179.37,-170.75 221.43,-201.67 15.51,-11.4 33.93,-23.54 51.08,-33.55 81.69,-47.65 161.89,-89.44 244.64,-20.32 42.93,35.85 49.04,101.88 55.55,112.33 11.06,-2.37 14.53,-9.48 24.58,-13.67l20.03 -17.35c21.86,-14.96 38.38,-31.9 56.59,-48.84 0.26,-0.25 0.7,-0.59 0.97,-0.82 0.28,-0.25 0.73,-0.58 1.02,-0.81 37.59,-30.74 33.75,-25.24 63.2,-61.17 10.73,-13.1 16.18,-14.81 26.45,-26.1 13.75,-15.12 3.67,-12.75 17.11,-20.43 24.72,-14.12 31.75,-45.68 35.04,-51.71 0.19,-0.35 0.48,-0.81 0.68,-1.16l3.7 -5.65c11.52,-16.27 2.15,4.24 16.98,-28.22 2.63,-5.74 3.34,-7.42 6.82,-11.83 9.49,-12.01 12.89,-28.79 17.1,-43.62l13.5 -25.82c21.52,-45.83 26.71,-87.62 39.64,-125.47 6.28,-18.38 7.45,-34.97 9.54,-54.16l3.83 -27.88c8.75,-84.5 -4.52,-165.02 -8.91,-245.24 -3.32,-2.95 -2.14,-1.88 -3.36,-12.13 -2.8,-23.74 -16.09,-56.54 -22.28,-79.81 -10.63,4.29 -19.99,16.01 -26.91,25.14 -4.38,5.78 -6.91,8.29 -12.43,13.91 -2.2,2.24 -4.57,4.84 -6.25,7.02 -11.36,14.69 -46.27,38.09 -61.47,49.27l-104.94 71.78c-4.38,2.78 -4.8,1.79 -8.9,4.34l-203.78 108.46c-11.34,6.48 -22.95,10.88 -34.21,16.4l-87.89 38.02c-6.55,3.9 -10.88,3.61 -17.53,7.05 -17.48,9.05 -44.84,19.44 -67.73,31.99 -6.03,3.3 -12.42,5.39 -18.42,8.14 -14.32,6.55 -96.84,50.54 -109.71,61.26l-8.55 6.25c-12.03,8.61 -18.11,9.65 -29.09,22.1 -4.2,4.75 -9.46,6.43 -16.14,11.65 -0.31,0.24 -0.7,0.62 -1.01,0.86l-12.79 9.76c-0.31,0.22 -0.77,0.52 -1.09,0.74l-5.74 3.71c-2.99,2.1 -5.34,3.68 -7.84,5.1 -2.15,1.22 -1.45,0.63 -3.75,2.11l-30.24 24.22c-2.69,1.81 -17.74,7.28 -26.43,19.19 -1.68,2.31 -0.93,1.63 -2.22,3.54 -4.52,6.71 0.61,0.65 -6.23,6.43 -7.57,6.39 -7.12,9.54 -11.04,13.52 -12.37,12.55 -29.2,32.73 -38.89,47.77 -4.1,6.35 -4.16,12.96 -11.63,13.98z"/>
   <path class="fil0" d="M6084.57 4143.84c-9.15,-18.19 6.14,-62.55 9.8,-79.52 5.71,-26.5 10,-50.32 17.02,-75.64 7.22,-26.06 14,-52.93 8.84,-82.98 -4.89,-28.47 -37.79,-45.23 -64.83,-36.59 -0.48,0.15 -0.96,0.32 -1.46,0.47 -1.24,0.37 -3.43,0.87 -4.71,1.16 -20.05,4.56 -58.93,26.33 -76.5,39.65l-19.31 14.73c-18.47,11.92 -47.19,41.59 -56.5,48.26l-145.02 133.53c-15.24,18.76 -34.94,32.56 -51.58,49.96l-16.59 17.26c-2.22,2.25 -0.71,0.84 -2.77,2.83l-22.44 22.66c-31.06,31.06 -65.57,66.6 -72.12,114.31 -3.74,27.3 5.16,60.28 20.12,72.53l31.8 15.33c14.27,3.61 22,5.07 32.69,12.19 1.65,15.76 -7.05,50.48 -8.85,72.05 -2.52,30.06 -9.77,38.18 -15.1,67.09l-5.73 26.14c-5.54,13.5 -6.91,28.53 -9.52,41.51 -0.89,4.48 -1.86,12.23 -3.68,16.9 -2.24,5.77 -3.78,7.79 -4.69,15.88l-18.3 83.31c-1.87,6.3 -3.25,9.85 -4.53,15.77 -3.79,17.67 -7.43,53.26 -7.85,73.8 -0.99,47.57 2.05,42.92 3.85,78.97 0.81,16.18 2.19,22.52 8.12,33.75 12.88,24.4 32.82,53.06 51.42,70.82 15.14,14.47 30.06,22.62 46.19,34.76 12.1,9.1 26.04,15.2 39.1,23.04 5.27,3.17 7.67,4.36 14.45,6.54 19.44,6.25 19.22,9.39 46.48,15.12 32.25,6.77 132.53,3.7 167.39,-6.94 10.79,-3.29 22.37,-4.92 33.31,-8.05 10.7,-3.06 19.46,-6.4 31.34,-10.07 6.56,-2.02 8.63,-3.49 15.15,-5.57l68.98 -32.46c17.5,-7.56 30,-19.18 45.18,-28.2l25.28 -16.17c2.2,-1.76 2.74,-2.44 4.76,-4.48l62.62 -61.54c3.73,-3.93 6.36,-6.51 9.91,-10.76 3.08,-3.7 1.33,-1.52 4.03,-5.33 2.09,-2.96 1.23,-2.2 4.12,-5.36 29.51,-32.32 51.26,-134.41 -35.47,-104.94 -14.93,5.07 -30.19,10.56 -43.18,18.84l-42.7 17.38c-43.24,11.74 -94.98,11.19 -133.88,-17.08 -18.23,-13.24 -22.08,-29.35 -23.11,-59.32 -0.94,-27.02 0.49,-52.84 1.94,-79.05 0.43,-7.82 2.03,-10.78 2.69,-17.18l4.38 -57.75c0.79,-5.92 3.54,-12.06 4.35,-16.07 1,-4.95 1.48,-15.09 1.99,-18.78l8.06 -52.04c0.72,-7.65 0.77,-13.49 1.69,-19.34l11.56 -71.22c1.76,-12.49 4.97,-20.82 7.66,-31.99 3.12,-0.03 8.71,0.22 11.59,-0.18l6.95 -2.2c0.47,-0.15 0.93,-0.36 1.41,-0.5 4.02,-1.18 13.05,-3.02 16.86,-3.78 25.93,-5.23 54.8,-2.43 80.34,-2.71 13.11,-0.15 49.29,-9.12 60.97,-13.99 3.28,-1.37 3.4,-1.14 6.5,-2.84 11.44,-6.31 21.23,-18.77 28.73,-29.28 0.32,-0.46 1.29,-1.73 1.62,-2.17 8.99,-12.04 12.14,-34.03 12.96,-49.01 2.75,-49.83 17.92,-112.67 -26.33,-133.44 -31.54,-14.8 -130.02,6.85 -157.45,-2.02z"/>
   <path class="fil3" d="M1973.5 3711.02c8.83,-1.8 98.12,-53.04 114.64,-67.7l3.34 -3.43c-1.46,-8.94 -20.15,-46.11 -26.11,-59.73 -8.51,-19.48 -17.51,-41.81 -24.69,-61.84 -15.34,-42.79 -29.99,-84.33 -39.45,-131.95 -17.71,-89.2 -27.56,-179.87 -1.43,-267.47 2.9,-9.73 8.5,-22.94 10.31,-30.92 11.15,79.37 16.7,134.47 39.05,213.05 6.32,22.22 13.5,44.16 19.43,65.07 15.3,53.97 48.85,126.77 72.77,179.26 9.17,20.11 20.06,38.77 27.49,57.29l57.21 -20.59c19.95,-6.84 39.94,-12.87 60.32,-18.35 19.7,-5.3 124.54,-21.11 129.9,-26.28 2.91,-3.12 2.04,-6.75 1.69,-15.97 -1.54,-40.17 -10.13,-82.95 -23.94,-119.58 -35.17,-93.21 -101.5,-177.27 -161.46,-252.32l-102.36 -125.14c-3.55,-4.77 -5.33,-6.6 -9.21,-11.49 -6.21,-7.82 -13.16,-14.47 -19.06,-22.35l-35.92 -46.75c-5.79,-8.37 -11.28,-15.67 -16.9,-24.43 -21.33,-33.22 -41.82,-69.53 -56.95,-108.6 -13.11,-33.86 -24.05,-80.19 -27.27,-116.91 -0.63,-7.25 -0.22,-12.4 -5.45,-17.78 -4.17,10.68 -10.15,17.95 -16.1,27.25 -35.73,55.82 -82.78,146.63 -108.23,206.06 -35,81.71 -66.54,193.33 -69.94,290.44 -3.94,112.53 19.71,211.21 63.15,297.32 20.61,40.85 41.02,79.82 65.25,113.55 16.45,22.9 61.4,85.53 79.92,100.29z"/>
   <path class="fil4" d="M1277.44 4324.71c-0.25,-16.28 11.41,-35.07 16.58,-47.85 3.43,-8.49 9.38,-11.97 14.5,-17.62l22.73 -41.23c7.26,-12.5 20.02,-23.44 28.92,-34.91 8.39,-10.81 21.77,-22.32 31.28,-32.63 3.66,-3.96 3.91,-5.8 7.45,-9.53l23.74 -23.22c5.85,-5.75 10.8,-10.86 16.18,-15.89 15.63,-14.6 35.23,-28.83 53.31,-42.59l94.76 -63.1c6.75,-3.91 13.51,-7.97 19.84,-12.14l20.04 -11.57c4.15,-2.13 7.77,-2.86 12.12,-5.29 2.66,-1.49 6.12,-4.08 9.09,-5.72 7.92,-4.37 13.45,-6.89 21.34,-10.39 16.03,-7.1 28.98,-12.49 44.89,-19.04 16.35,-6.74 30.74,-9.46 46.97,-17.1 14.56,-6.85 29.24,-13.15 42.47,-21.57 10.37,-6.58 29.97,-21.94 24.21,-36.3 -14.54,-5.56 -74.4,-3.78 -96.94,-3.65l-94.51 5.79c-14.48,3.55 -28.78,3.47 -44.26,6.44 -21.62,4.16 -66.98,10.94 -86.51,18.99 -10.57,4.35 -20.63,5.46 -31.35,10.06 -6.9,2.95 -11.03,4.92 -19.14,7.11 -12.6,3.41 -8.75,3.48 -16.57,7.86 -5.47,3.06 -11.01,4.18 -16.9,7.58l-50.71 22.54c-6.51,2.73 -10.29,6.47 -15.16,9.16 -3.16,1.75 -5.91,2.41 -9.23,3.98l-82.1 53.6 -52.37 47.28c-2.44,2.6 -4.79,4.29 -6.8,6.36l-12.16 12.27c-0.43,0.45 -3.86,4.92 -4.95,6.24l-35.45 47.63c-10.45,12.09 -44.44,80.84 -49.05,91.7 -5.2,12.25 -9.72,22.14 -15.18,33.69 -5.39,11.43 -8.24,25.07 -12.89,36.52 -5.12,12.63 -14.06,52.98 -16.66,57.4l-22.65 96.93c-5.92,27.04 -5.01,62.04 -10.44,89.04 -2.25,11.14 -2.75,80.19 -2.75,96.35 9.5,-2 7.78,-3.87 13.41,-10.76 11.92,-14.59 25.1,-28.77 40,-40.65l36.98 -26.74c1.37,-0.84 2.08,-1.17 3.62,-2.12l10.36 -6.37c25.46,-13.75 50.78,-27.42 77.66,-36.84l53.78 -19.51c5.33,-1.59 10.3,-4.59 14.56,-5.85l179.46 -48.74c55.27,-14.2 161.56,-52.46 210.66,-81.18 13.81,-8.08 13.43,-9.92 13.86,-27.17 2.36,-95.24 5.74,-163.79 37.85,-253.74 5.04,-14.13 18.94,-47.8 20.41,-60.93 -7.53,1 -91.11,47.46 -113,57.04l-94.66 51.8c-5.9,4.22 -7.37,6.89 -13.17,11.11 -0.01,0 -4.54,3.05 -4.57,3.08 -24.03,14.77 -42.25,31.4 -63.89,48.76l-45.18 35.7c-2.58,2.24 -0.95,0.59 -2.9,2.68 -4.21,4.52 -1.55,2.15 -4.58,6.53 -5.3,7.68 -6.25,5.28 -12.51,10.3 -4.84,3.88 -6.59,8.34 -11.47,12.91 -3.16,2.96 -10.23,5.83 -27.07,21.85 -4.93,4.69 -7.1,8.6 -11.49,12.92l-12.81 11.58c-4.35,5.11 -8,7.52 -12.41,12.09 -2.34,2.42 -3.78,4.11 -6.56,6.64l-22.03 12.43z"/>
   <path class="fil2" d="M4792.42 3746.32l14.76 61.12c13.46,38.41 19.04,52.05 36.17,89.3 22.53,48.96 25.18,46.06 47,81.13l32.4 41.01c21.06,26.36 36.31,35.71 51.02,50.56 12.21,12.32 27.88,22.74 41.75,33.6 28.07,21.97 26.02,20.29 55.72,13.6 36.09,-8.14 104.76,-14.09 126.33,-23.57 6.6,-32.12 -47.18,-123.92 -66.03,-155.14 -10,-16.57 -9.53,-9.42 -17.12,-26.08 -6.38,-13.99 -33.09,-37.45 -34.41,-51.92l52.26 28.54c3.67,2.81 5.17,3.4 9.03,6.04 15.73,10.79 13.9,12.45 21.88,19.45 42.18,37 77.64,89.67 104.13,138.52 5.69,10.5 15.58,35.71 22.36,41.46 6.71,5.7 43.5,7.51 55.58,6.7 1.28,-35.82 -20.23,-105.98 -20.56,-114.07l-29.1 -67.87 -30.74 -54.35c-2.48,-3.12 -13.73,-26.32 -26.33,-44.34l-4.94 -8.23c-21.01,-34.48 -55.03,-75.96 -87.09,-101.21 -0.32,-0.26 -0.74,-0.61 -1.07,-0.86 -15.57,-11.58 -7.4,-7.93 -26.69,-24.08l-89.25 -63.21c-17.26,-10.97 -18.83,-9.57 -28.48,-20.06l-9.79 -7.53c-0.34,-0.22 -0.8,-0.52 -1.13,-0.75 -0.34,-0.22 -0.79,-0.53 -1.12,-0.76l-25.55 -17.51c-6.72,-4.06 -9.87,-3.44 -17.09,-5.92 -9.5,-3.28 -11.89,-7.45 -22.42,-9.63l-137.27 -52.5c-1.66,2.28 -0.32,-0.6 -2.28,4.23 -3.4,8.36 -5.31,46.02 -5.81,54.48 -1.07,18.1 1.74,111.1 4.18,124.1 3.01,16.04 8.38,38.34 9.7,55.75z"/>
   <path class="fil5" d="M1198.77 3344.8c6.6,5.32 9.45,24.52 15.01,40.8 27.77,81.3 112.63,183.85 183.05,227.53 17.15,10.64 37.01,27.11 51.75,31.07 7.77,2.09 59.04,28.95 76.31,34.82 6.44,2.19 14.04,3.64 19.89,6.4 14.67,6.92 23.39,8.59 40.85,13.75l42.24 12.22c7.82,2.63 17.62,2.28 23.45,4.84l21.4 7.15c16.07,4.21 16.67,3.61 24.4,1.71 0.54,-0.13 1.23,-0.35 1.82,-0.59l-0.22 -4.99c-3.52,-10.3 -23.33,-10.89 -30.98,-14.95 -6.16,-3.27 -0.19,-0.61 -6.85,-4.41 -4.77,-2.73 -3.71,-1.05 -8.53,-4.45l-58.82 -42.8c-5.47,-3.91 -7.6,-8.96 -13.29,-12.95 -26.55,-18.58 -56.7,-49.23 -79.4,-72.76 -26.92,-27.9 -74.6,-79.25 -93.69,-111.02l-23.42 -40.59c-1.74,-3.09 -3.1,-5.68 -4.53,-8.41 -12.68,-24.3 -50.34,-123.35 -35.66,-142.78 12.06,3.03 5.78,8.47 20.07,24.45 9.57,10.7 18.21,27.44 25.99,40.16l35.65 52.8c9.97,15.99 56.02,70.79 70.85,86.7 28.64,30.72 55.8,57.07 90.67,88.01 15.14,13.43 31.82,27.16 48.36,40.09 9.35,7.29 16.52,11.65 26.52,18.64 8.58,5.98 17.59,13.95 32.35,13.98 19.38,-36.38 14.83,-24.83 20.49,-61.33 0.16,-1.03 0.7,-4.24 0.94,-5.08 3.58,-12.47 -3.28,8.16 1.2,-3.32 0.21,-0.55 0.57,-1.17 0.76,-1.6 0.19,-0.44 0.48,-1.09 0.81,-1.58 -4.22,-31.68 11.03,-51.36 -13.06,-117.94 -8.94,-24.71 -19.2,-47.47 -36.41,-65.35l-15.92 -19.79c-3.29,-3.92 -4.22,-5.68 -7.56,-9.36 -3.19,-3.5 -5.32,-5.54 -8.09,-8.74l-24.82 -26.08c-11.15,-9.5 -29.72,-27.21 -42.41,-34.85 -2.98,-1.8 -3.12,-1.5 -5.98,-3.44 -20.33,-13.77 -11.9,-9.85 -40.75,-26.93 -7.52,-4.45 -14.09,-9.27 -20.79,-14.79l-41.2 -26.49c-13.24,-10.59 -31.03,-15.58 -42.73,-26.91l-99.09 -71.96c-4.87,-4.54 -2.67,-5.21 -8.01,-8.68 -5.41,-3.51 -4.83,-1.51 -10.7,-6.4l-30.35 -30.01c-3.54,-5.51 -0.88,-2.06 -2.95,-6.75l-16.27 -20.9c-0.27,-0.29 -0.65,-0.7 -0.92,-0.99 -0.27,-0.28 -0.64,-0.7 -0.91,-0.98 -15.65,-16.54 -9.55,-16.71 -16.26,-27.1 -9.35,-14.49 -7.79,-16.56 -15.47,-35.67 -2.65,3.72 -5.65,40.14 -15.08,64.16 -7.95,20.26 -11.77,76.08 -13.43,82.48l-5.23 22.6c-0.82,4.96 -2.09,8.23 -2.6,12.25 -3.13,24.35 -4.37,83.3 -0.93,107.04l10.16 57.76c1.05,7.93 1.44,3.66 3.92,10.16 2.44,6.4 2.78,15.84 4.4,22.15z"/>
   <path class="fil6" d="M5259.04 4508.66l9.09 7.06c35.24,17.02 71.69,33.62 106.37,52.29 19.02,10.24 35.22,22.4 52.84,33.54 16.47,10.41 31.54,25.62 44.04,40.24l13.42 14.57c8.13,10.89 27.1,41.36 30.71,53.43 16.45,55.01 16.56,72.72 14.3,129.96 -0.69,17.32 -8.46,38.92 -14.54,55.87 -3.79,10.56 -10.41,18.94 -13.74,29.29 -4.77,14.84 -20.82,41.16 -30.86,53.7 -5.09,6.36 -7.59,8.78 -12.14,16.16 -6.64,10.78 -17.08,21.87 -25.59,30.43 -2.56,2.57 -3.94,3.19 -7.72,7.54l-23.93 18.35c-8.47,3.3 -11.29,5.5 -18.54,10.33l-26.96 16.25c-16.54,8.51 -26.79,17.29 -45.68,25.58 -13.26,5.82 -25.45,11.52 -39.76,16.69 -12.37,4.47 -52.6,17.72 -66.5,19.7 -52.23,7.45 -59.52,12.14 -124.06,16.9 -38.17,2.81 -147.79,2.34 -184.32,-15.68 -0.08,-0.04 -47.81,-12.55 -66.44,-20.37 -7.07,-2.97 -13.48,-5.76 -19.51,-8.78 -11.21,-5.63 -8.11,-4.27 -16.8,-11.12l-49.58 -35.15c-19.98,-11.77 -18.03,-5.75 -39.24,5.15l-84.5 55.09c-23.94,16.22 -26.4,16.18 -54.03,28.56 -7.59,3.4 -13.59,3.95 -21.45,7.17l-37.27 16.89c-11.09,6.75 -28.31,9.7 -43.3,12.99 -31.91,7 -64.83,14.62 -98.11,5.67 -35.66,-9.59 -49.7,-9.09 -79.59,-31.26 -127.21,-94.36 -40.21,-237.75 -113.05,-178.35 -7.14,5.83 -12.35,13.57 -18.12,21.03l-16.12 21.44c-0.29,0.37 -2.71,3.51 -4.05,5.32 -8.84,11.9 -14.42,25.25 -23.76,34.93l-50.67 63.79c-6.13,6.97 -13.42,12 -20.67,18.9l-19.75 17.83c-7.82,7.62 -13.67,10.05 -23.73,16.12l-43.31 24.27c-10.31,6.41 -22.09,9.81 -32.54,14.69l-27.31 10.49c-7.2,1.79 -24.95,4.12 -32.98,4.94 -47.63,4.87 -83.78,-10.38 -121.17,-33.65 -4.82,-3 -9.36,-4.89 -13.51,-7.16 -16.44,-8.99 -55.1,-48.56 -65.89,-66.1 -21.5,-34.92 -22.33,-42.01 -35.94,-80.73 -3.41,-9.68 -6.77,-19.5 -8.8,-28.44 -5.1,-22.52 -3.51,-47.08 -7.42,-69.93 -5.02,-29.43 -1.69,-116.7 3.98,-146.42 4.17,-21.86 8.53,-40.64 13.13,-63.8 4.04,-20.34 11.79,-40.08 17.14,-59.86 9.1,-33.67 9.61,-27.47 22.17,-54.81 4.25,-9.27 7.27,-19.43 11.69,-28.17 16.75,-33.16 39.74,-63.12 58.39,-95.32l47.41 -56.17c1.6,-1.8 3.09,-3.08 4.6,-4.75l18.41 -21.14c3.2,-3.24 7.61,-5.84 10.11,-8.75 3.09,-3.58 4.41,-7.93 7.85,-10.81 2.17,-1.82 4.01,-2.65 6.44,-4.86 11,-9.98 36.46,-33.57 46.72,-39.65 5.98,-3.55 6.54,-2.61 12.08,-6.96 4.45,-3.48 6.62,-4.9 11.01,-7.74 11.77,-7.62 25.63,-12.4 36.56,-19.9 5.86,-4.02 16.62,-10.91 23.88,-13.68 7.25,-2.77 8.41,-2.85 15.02,-5.83 24.2,-10.95 50.38,-13.7 75.96,-20.31 7.64,-1.98 25.1,-3.9 33.86,-4.13 69.69,-1.85 63,-0.91 119.79,13.96l54.37 23.58c15.57,7.35 32.5,21.71 46.47,30.66 4.57,2.93 7.73,3.45 13.74,5.61 0.47,0.17 0.9,0.41 1.39,0.57 14.93,4.78 17.67,-1.9 27.05,-9.86l87.35 -64.66c0.37,-0.22 0.85,-0.51 1.21,-0.72l49.82 -21.76c0.4,-0.17 0.89,-0.39 1.29,-0.56l32.81 -7.88c29.25,-4.94 62.62,-1.53 87.31,10.3l2.25 1.14c0.27,0.19 0.72,0.52 0.97,0.72l22.43 24.51c16.36,22.88 9.12,72.38 5.9,102.41l-19.48 132.6c-2.4,10.35 -4.78,19.31 -5.91,31.16 -1.64,17.3 -5.76,52.25 -10.5,66.67 -4.75,14.47 -5.15,35.56 -8.63,49.39l-6.73 51.31c-4.06,43.91 -24.05,138.44 -8.09,174.55 13.01,29.45 52.05,38.96 82.65,35.07 35.22,-4.49 31.55,-41.91 45.64,-70.27 4.06,-8.17 9.27,-16.7 15.51,-23.64 7.73,-8.59 10.61,-9.49 20.42,-17.21 18.35,-14.44 28.12,-19.43 50.54,-26.7 16.99,-5.52 51.19,-7.23 71.87,-2.94 20.38,4.23 36.95,12.81 51.39,23.45 7.96,5.86 17.49,8.87 25.25,14.23 4.01,2.77 6.56,4.59 11.08,7.63 11.24,7.55 20.11,19.81 30.31,27.92l41.59 35.73c20.23,17.93 29.34,27.03 52.74,41.14 39.18,23.63 94.89,37.38 120.21,-9.5 24.99,-46.27 -17.3,-89.1 -44.23,-96.56 2.74,7.6 12.16,12.61 21.63,19.79 15.54,11.78 28.32,29.01 26.07,51.57 -2.31,23.11 -15.76,34.05 -35.89,41.68 -28.11,10.66 -70.37,-8.73 -91.77,-19.5 -18.08,-9.11 -30.31,-21.16 -44.12,-33.23 -8.17,-7.13 -13.25,-11.57 -20.71,-18.78 -33.79,-32.69 -35.33,-42.35 -84.71,-69.33 -28.95,-15.81 -50.14,-26.15 -88.03,-26.05 -17.76,0.04 -31.03,0.03 -47.44,4.91 -0.55,0.16 -1.03,0.3 -1.58,0.45 -0.57,0.15 -1.06,0.25 -1.63,0.39l-31.69 12.78c-0.28,0.23 -0.67,0.63 -0.94,0.87 -13.67,11.93 -32.59,22.95 -41.6,38.78 -22.07,38.77 -19.75,73.67 -40.18,84.58 -23.45,12.52 -52.45,-0.39 -70.24,-11.51l-14.48 -13.76c-19.03,-31.18 8.59,-193.93 15.53,-236.05 3.45,-20.97 9.79,-43.37 11.52,-64.62 1.43,-17.48 2.73,-33.49 7.89,-50.64 4.76,-15.81 3.46,-35.67 7.23,-51.65 2.41,-10.21 2.74,-21.59 4.51,-32.97 5.62,-36.33 25.96,-138.45 10.8,-169.17l-7.14 -11.31c-18.2,-17.99 -29.19,-30.61 -59.84,-35.73 -44.49,-7.42 -90.09,1.55 -130.07,20.69l-38.64 19.65c-3.23,1.46 -8.12,5.02 -11.34,7.29 -2.5,1.78 -3.66,2.84 -6.82,4.54 -1.97,1.06 -4.97,2.23 -6.55,2.96 -12.56,5.78 -21.92,16.41 -33.15,23.15l-11.76 8.84c-6.02,3.97 2.17,1.29 -6.46,3.41 -12.79,3.13 -26.88,-3.99 -38.73,-8.34 -10.76,-3.95 -19.85,-13.59 -29.32,-19.74l-4.85 -2.64c-9.64,-5.57 -15.11,-13.04 -25.55,-17.63l-26.12 -7.85c-9.43,-4.33 -20.35,-6.21 -30.59,-8.81 -28.81,-7.3 -101.21,-7.43 -127.44,-3.47 -17.26,2.61 -33.37,0.8 -47.74,6.79 -0.44,0.18 -0.89,0.43 -1.35,0.6 -10.6,3.89 -21.73,1.45 -30.74,6.74l-9.19 4.28c-7.72,2.75 -7.24,1.26 -12.01,6.16 -2.61,2.68 -1.89,2.38 -4.35,5.01 -1.29,1.38 -2.23,2.26 -2.86,2.87 -6.75,6.55 -14.49,6.5 -21.5,12.37 -6.96,5.83 -18.35,6.69 -26.26,11.6l-9.27 9.22c-6.98,7.77 -16.17,10.18 -23.28,16.33l-3.97 3.53c-0.29,0.25 -0.7,0.62 -0.99,0.87 -0.84,0.73 -2.34,2.07 -3.03,2.64l-9.22 7.69c-6.23,5.83 -13.44,10.42 -18.55,17.02 -2.42,3.13 -1.54,2.65 -3.71,5.7 -8.02,11.26 -22.42,17.54 -32.9,25.61l-25.32 30.82c-7.7,12.7 -3.52,12.91 -15.91,23.73 -3.82,3.33 -5.86,4.99 -8.47,10.42l-6.11 8.81c-6.84,6.9 -41.07,68.71 -52.96,86.22l-24.77 52.51c-1.49,6.69 -1.12,7.84 -4.57,14.15 -10.23,18.71 -18.38,59.4 -25.26,72.66l-5.49 13.1c-3.25,9.8 -4.43,19.69 -8.47,29.11 -17.85,41.61 -5.03,25.71 -12.81,64.36 -1.8,8.96 -5.71,20.7 -6.06,30.65l0.97 74.61c1.23,10.23 0.4,24.24 1.7,35.94 3.29,29.61 3.21,67.02 13.74,93.69 0.71,1.81 1.81,4.88 2.48,6.92l10.68 26.8c9.32,21.47 24.02,41.94 34.89,62.86 6.31,12.13 16.32,20.38 24.69,31.72 13.72,18.62 42.12,43.68 62.89,53.95 36.3,17.95 88.94,26.62 129.85,20.44 31.8,-4.81 55.46,-15.65 76.11,-19.81 12.62,-2.55 24.84,-9.05 35.16,-15.64l22.98 -12.82 83.4 -80.13c9.34,-10.35 16.81,-21.8 26.9,-31.42 5.13,-4.9 4.28,-4.25 7.63,-11.16 5.71,-11.75 14.48,-20.63 21.77,-30.91l2.39 -3.24c7.77,-10.55 12.46,-25.1 22.1,-34.28 1.54,-1.47 3.77,-2.77 5.46,-3.93 1.7,-1.16 1.73,-1.02 3.33,-2.34l13.47 -9.04c3.63,5.06 7.22,7.04 8.73,13.38 4.38,18.35 5.49,39.01 7.83,56.32 2,14.86 6.35,20.11 10.7,32.43 0.63,1.78 0.72,2.46 1.45,4.29l5.25 11.78c4.08,9.28 3.43,4.94 9.19,11.49 4.01,4.56 5.04,8.87 8.6,13.99 4.08,5.86 5.63,5.17 10.02,10.62l9.51 13.12c3.9,4.91 6.32,4.36 11.09,7.71 0.32,0.22 0.75,0.58 1.06,0.81l37.39 26.39c3.26,0.92 6.76,0.35 10.38,1.06l6.85 2.54c19.49,7.9 72.17,13.86 98.34,6.02 11.42,-3.42 31.95,-5.5 42.69,-9.87l40.68 -12.04c8.37,-2.44 8.92,-3.95 15.91,-6.66 16.01,-6.23 28.58,-14.43 43.84,-20.03l39.19 -19.35c4.76,-5.16 9.51,-5.79 15.95,-10.23 4.11,-2.84 7.37,-6.67 12.19,-10.33 6.15,-4.67 14,-6.98 20.1,-11.96 1.63,-1.33 3.39,-3.46 5.79,-5.43 4.74,-3.9 7.52,-4.33 12.64,-8.05l26.95 -18.18c0.34,-0.21 0.8,-0.51 1.15,-0.71 1.95,-1.16 -0.03,-0.26 3.66,-1.95 8.35,-3.81 16.61,-3.66 24.49,-0.08 4.27,1.94 23.8,14.31 26.13,16.98 9.58,11.01 14.21,8.97 25.56,17.69 10.79,8.3 22.32,12.13 33.44,19.2 12.32,7.82 14.6,4.63 22.15,9.83 4.73,3.26 11.6,4.36 17.87,6.56l6.69 2.63c1.17,0.37 7.58,1.65 7.73,1.67 23.49,3.42 17.53,6.25 33,10.06 8,1.97 27.82,2.69 37.84,3.83 7.76,0.87 11.49,2.8 19.05,3.45l61.93 2.12c23.44,0.07 56.69,1.72 78.46,-2.51l96.53 -12.69 41.57 -11.02c1.85,-0.89 1.89,-1.82 5.59,-3.67 6.3,-3.16 21.31,-3.35 26.82,-7.09 0.32,-0.22 0.73,-0.59 1.05,-0.82 0.33,-0.22 0.75,-0.58 1.08,-0.81 8.24,-5.52 17.63,-7.86 26.42,-13.11l12.56 -8.07c3.31,-2.21 1.51,-2.14 6.57,-4.6 21.26,-10.3 15.63,-4.22 42.14,-20.06l6.52 -4.75c12.84,-14.24 18.79,-11.25 31.98,-24.47l1.81 -1.88c3.01,-2.79 -1.82,0.9 2.94,-2.44 2.42,-1.7 3.63,-2.07 5.88,-3.45 13.63,-8.37 26.25,-20.74 36.81,-33.13 2.39,-2.8 0.82,-0.98 2.51,-3.21l18.98 -24.06c10.81,-9.98 31.31,-43.1 37.67,-58.49l10.37 -21.39c5.71,-12.77 6.46,-27.51 11.27,-41.38 9.29,-26.78 5.47,-95.05 1.29,-121.18 -20.14,-125.86 -141.13,-177.89 -244.99,-227.64 -8.95,-4.28 -18.26,-11.03 -30.12,-11.93z"/>
   <path class="fil6" d="M1891.43 4583.59c1.64,7.72 -0.17,5.12 5.36,11.2 14.47,15.92 32.02,32.46 49.84,44.49l51.16 29.52c6.62,3.42 11.78,4.31 18.71,7.75 60.49,30.07 156.18,32.17 233.14,16.58 3.3,-0.67 7.17,-1.73 10.35,-3.01 0.43,-0.17 0.91,-0.4 1.32,-0.58 0.4,-0.17 0.88,-0.41 1.28,-0.58l19.08 -6.79c0.5,-0.18 0.98,-0.37 1.47,-0.55l4 -1.71c21.92,-8.62 35.31,-10.17 57.18,-22.01l19.37 -10.78c5.52,-3.45 12.08,-6.67 18.13,-9.96 11.76,-6.38 19.8,-14.09 30.8,-21.85l42.46 -38.94c8.65,-10.32 16.45,-17.09 24.87,-27.65l21.76 -33.32c15.91,-28.84 27.92,-40.19 33.02,-75.7 2.84,-19.73 -7.52,-49.23 -29.07,-49.97 -12.68,-0.44 -32.17,5.09 -43.01,10.04 -20.16,9.19 -70.17,8.47 -81.07,-10.94 -21.17,-37.69 -25.5,-65.65 -1.49,-105.44l9.76 -10.88c5.47,-3.5 7.38,-8.35 13.47,-12.8 5.31,-3.88 10.35,-7 16.19,-10.17 14.04,-7.62 22.02,-13.06 38.14,-16.27 13.67,-2.72 54.93,6.88 64.79,12.36 6.63,3.7 2.38,1.53 10.55,4.55 11.56,4.27 1.34,-0.3 7.9,5.15 7.39,6.13 7.92,4.83 14.79,13.31l8.76 8.26c0.31,0.24 0.79,0.53 1.1,0.77 7.64,5.93 4.04,11.28 14.9,17.36 11.91,6.67 14.49,21.75 20.51,33.44l12.88 28.18c0.18,0.48 0.36,0.98 0.55,1.45 0.18,0.46 0.38,0.96 0.57,1.4l8.54 28.85c2.01,5.86 4.88,13.67 6.62,19.61 4.01,13.71 5.1,29.55 5.66,46.14 2.2,65.89 7.16,143.6 -5.56,203.72 -1.84,8.69 -1.56,16.52 -4.4,23.73 -3.48,8.86 -3.69,9.31 -5.77,20.54 -0.86,4.63 -1.74,5.81 -2.7,10.42l-4.76 34.99c-0.68,19.49 -12.92,70.13 -18.24,89.04l-25.72 81.53c-1.43,4.6 -2.75,6.17 -4.72,9.83l-12.79 40.07c-3.6,10.56 -0.84,2.71 -4.32,8.57l-23.89 56.89c-2.4,6.21 -3.6,14.05 -6.04,20.53 -2.57,6.84 -4.92,11.34 -7.55,18.67 -4.74,13.24 -10.35,25.25 -15.24,39.43 -2.17,6.29 -4.85,10.94 -7.71,18.55 -8.74,23.28 -23.58,40.09 -28.93,64.59l-4.9 16.11c-8.18,16.79 -5.26,49.11 -4.08,68.43 0.5,8.34 2.64,10.45 6.69,16.8l11.75 16.4c9.33,12.53 17.42,14.71 31.23,23.2 41.23,25.36 91.02,21.74 137.48,15.34 14.03,-1.94 34.73,-4.02 46.14,-8.47l7.27 -3.6c0.35,-0.15 0.83,-0.41 1.19,-0.55 10.79,-4.34 19.66,-5.06 31.34,-7.66 16.65,-3.71 28.43,-8.34 41.24,-14.29 11.94,-5.55 16.59,-5.13 27.25,-12.19 13.76,-9.12 31.18,-15.92 45.75,-22.19 12.63,-5.42 21.78,-13.53 34.85,-19.31 11.89,-5.27 22.98,-12.93 34.88,-19.79 22.23,-12.84 21.33,-12.26 41.95,-29.74l29.78 -26.57c15.47,-13.98 32.6,-24.68 46.87,-39.7 21.69,-22.83 22.68,-9.96 49.32,-46.53l4.98 -6.03c1.43,-1.86 2.05,-3.13 2.18,-3.3l1.35 -1.47c8.43,-8.66 9.21,-6.61 13.67,-13.85l5.33 -8.07c17.71,-18.94 21.34,-28.47 30.66,-37.03 7.24,-6.65 10.71,-16.46 16.2,-23.26 3.38,-4.17 9.48,-8.77 12.68,-15.46 2.77,-5.78 0.13,-3.78 3.98,-9.47 5.32,-7.84 4.94,-0.42 11.27,-7.06 11.3,-11.87 15.48,-28.71 26.23,-41.7 4.47,-5.39 2.1,-0.86 5.38,-7.5 1.51,-3.03 0.53,-2.11 2.47,-5.23l39.88 -63.57c0.22,-0.32 0.53,-0.78 0.74,-1.11 4.53,-7.22 7.71,-14.51 13.71,-20.34 6.62,-6.43 13.48,-20.97 18.6,-29.97l6.12 -12.75c5.32,-8.53 5.34,-6.5 8.91,-17.19 3.16,-9.45 3.01,-5.08 4.99,-8.39 6.18,-10.36 8.45,-26.01 17.2,-35.69l3.86 -5.14c6.43,-14.19 3.15,-12.76 15.45,-37.31 1.68,-3.34 0.46,-0.71 1.78,-3.8 1.15,-2.68 0.83,-2.55 2.17,-5.42l4.84 -8.39c9.25,-14.45 9.03,-30.98 19.2,-54.11 9.41,-21.4 6.13,-20.52 10.95,-38 1.14,-4.12 0.8,-2.49 1.63,-4.13l14.62 -37.88c5.71,-17.34 4.48,-0.56 10.09,-23.7l19.32 -37.25c6.08,-8.73 3.43,-11.62 7.83,-22.18l16 -40.35c0.17,-0.38 0.38,-0.88 0.54,-1.28 0.16,-0.41 0.32,-0.92 0.48,-1.35l37.78 -90.38c3.46,-5.73 1.58,-1.56 4.9,-8.13l7.37 -18.74c3.21,-13.05 9.81,-15.69 14.45,-27l2.43 -5.24c6.16,-10.72 2.92,-18.06 9.58,-24.51 5.82,-5.64 3.6,-0.44 7.45,-7.28l25.21 -61.2c0.54,-1.6 0.38,-2.17 1.17,-4.49 2.35,-6.93 1.86,-3.99 4.76,-8.57 7.84,-12.43 10.55,-25.45 14.91,-39.51l17.87 -34.83c2.62,-5.38 1.47,-3.23 3.78,-9.31l5.59 -9.68c2.27,-3.01 1.09,-0.68 2.91,-4.37l22.66 -48.77c1.84,-4.93 0.59,-1.99 2.34,-5.34 4.71,-9 8.5,-19.31 14.27,-27.18l1.75 -2.09c0.24,-0.3 0.67,-0.66 0.91,-0.96l4.61 -8.33c3.61,-7.09 -0.45,0.62 3.07,-4.6 3.96,-5.86 3.14,-9 9.42,-16.95 3.38,-4.28 -0.29,1.35 2.17,-3.25 1.46,-2.74 0.39,-1.83 2.29,-5.28l5.22 -7.85c1.01,-2.18 0.77,-2.76 1.98,-5.54 0.75,-1.72 3.8,-6.59 5.06,-8.32 0.24,-0.32 0.57,-0.77 0.81,-1.09 0.24,-0.32 0.58,-0.76 0.82,-1.07l19.87 -28.92c5.54,-8.59 15.15,-28.21 21.44,-33.35 16.15,-13.17 7.93,-7.54 19.85,-19.57 3.74,-3.77 2.9,-3.08 5.99,-7.05 4,-5.12 8,-9.21 12.14,-14.25 12.37,-15.1 27.83,-26.24 43.16,-37.78l32.76 -21.76c11.92,-5.37 48.94,-20.78 57.62,-21.53 26.41,-2.3 51.37,3.35 74.86,6.29 6.79,0.85 14.3,2.76 22.03,4.28l21.98 5.93c6.46,2.89 14.44,1.9 21.62,4.6 8.45,3.17 9.35,5.04 19.06,6.92 5.74,1.11 17.85,2.02 23.56,2.81 19.13,2.62 55.6,0.46 72.85,-6.38l28.97 -12.33c20.68,-7.86 35.96,-25.1 48.4,-43.38 6.71,-9.86 12.61,-13.1 18.67,-22.6l8.08 -14.43c0.2,-0.38 0.46,-0.86 0.66,-1.24 3.78,-6.94 9.17,-9.33 11.66,-16.46 8.75,-25.09 13.45,-86.83 7.61,-110.06 -5.05,-20.1 -12.8,-50.93 -25.74,-67.77 -1.1,-1.43 -2.17,-2.66 -3.88,-3.95 -4.13,-3.13 2.37,0.27 -4.41,-2.41 2.21,10.71 1.68,3.62 5.29,10.55 1.43,2.74 2,5.67 3.42,9.59 8.14,22.54 15.45,33.18 19.08,59.33 2.79,20.1 0.75,55.65 -5.42,74.93l-13.95 38.18c-15.32,23.74 -4.43,14.04 -22.96,37.2l-35.68 35.17c-4.34,2.95 -12.43,4.48 -18.42,8.16 -10.02,6.15 -5.98,3.65 -19.38,6.51 -34.82,7.41 -48.97,14.97 -93.53,7.73 -14.24,-2.32 -28.47,-6.27 -45.22,-8.96 -73.16,-11.72 -97.84,-36.54 -175.35,1.61 -19.78,9.74 -15.76,8.29 -33.06,19.36 -4.39,2.8 -1.18,0.55 -4.6,3.19 -13.78,10.64 -20.51,15.08 -33.91,28.11l-1.92 1.86c-0.28,0.27 -0.68,0.65 -0.96,0.92 -12.11,11.36 -25.01,21.85 -34.95,34.96l-1.6 2.25c-9.05,12.09 -17.74,17.73 -29.94,35.76l-6.46 10.72c-0.2,0.41 -0.41,0.92 -0.6,1.34l-17.69 27.17c-14.3,18.74 -22.46,41.62 -34.7,61.34 -3.52,5.67 -6.87,9.58 -10.08,16.39l-19.58 35.06c-2.55,6.58 -6.99,9.93 -13.19,26.08l-20.71 45.13c-3.37,7.46 -6.23,11.08 -8.88,17.47 -3.51,8.46 -4,9.82 -8.34,17.83 -4.88,9.02 -6.47,20.61 -12.19,29.1 -1.27,1.9 -1.82,2.22 -3.3,3.7 -5.84,5.81 -17.13,28.85 -20.67,37.96 -4.22,10.86 -7.81,23.18 -14.42,32.59 -2.37,3.38 -1.17,1.3 -2.49,3.04 -6.85,9.06 -10.59,26.35 -15.11,37.47l-8.56 17.5c-2.95,6.87 -4.5,15.24 -6.93,21.64l-15.03 37.8c-2.14,6 -2.44,4.41 -4.34,8.6l-19.72 48.07c-4.89,10.04 -5.69,18.77 -11.86,27.54 -1.34,1.91 -1.78,2.54 -3.05,4.41l-6.9 13.46c-2.19,5.25 -1.98,3.97 -4.61,8.65l-23.82 54.97c-6.64,19.06 -16.29,37.2 -23.42,55.65 -2.94,7.61 -4.02,12.61 -6.94,19.65 -2.97,7.12 -5.69,12.75 -8.06,20.11 -1.48,4.59 -1.75,5.68 -3.61,9.6l-10.92 28.46c-10.72,25.65 -23.48,48.83 -32.34,74.85 -4.62,13.55 -11.53,23.81 -17.13,37.26 -6.63,15.93 -16.43,32.89 -25.63,47.96l-47.96 77.92c-11.45,18.78 -25.53,36.04 -37.74,54.35l-20.62 28.56c-9.03,10.95 -13.87,24.11 -24.26,34.18 -5.49,5.33 -7.68,10.05 -12.12,15.84l-47.51 57.77c-4.2,5.28 -7.27,10.33 -11.31,15.13l-52.54 54.65c-13.85,13.17 -26.47,25.58 -42.29,36.92 -15.01,10.76 -28.06,25.06 -42.24,36.59 -27.37,22.28 -35.96,25.77 -63.45,43.79 -6.24,4.09 -9.4,6.16 -16.45,9.84 -6.33,3.31 -10.45,5.73 -17.32,9.02 -35.92,17.22 -70.57,39.99 -110.09,50.07 -46.32,11.81 -86.69,25.21 -135.82,24.94 -29.92,-0.16 -40.67,-4.92 -64.35,-14.45 -48.32,-19.43 -73.12,-65.59 -53.44,-119.44 7.37,-20.16 18.61,-60.95 27.88,-79.87 10.91,-22.26 22.37,-50.38 32.18,-74.84 20.77,-51.74 43.29,-100.43 57.88,-155.25 4.02,-15.09 10.49,-26.71 14.37,-39.64 4.39,-14.62 6.38,-28.62 10.56,-42.24 10.7,-34.81 11.99,-55.36 18.37,-89.16l9.94 -41.68c2.71,-13.07 4.54,-34.3 5.55,-48.1 6.57,-89.18 8.22,-110.49 3.09,-201.26 -0.93,-16.42 -3.33,-33.58 -6.02,-48.85 -3.74,-21.18 -9.34,-23.55 -13.66,-38.19 -6.38,-21.63 -16.74,-55.38 -32.48,-73.24 -27.65,-31.38 -31.6,-44.55 -76.64,-58.91 -7.61,-2.42 -11.75,-5.14 -18.98,-7.08 -14.05,-3.79 -34.43,0.73 -45.96,4.41 -7.64,2.43 -11.76,6.49 -19.21,8.66 -18.68,5.43 -37.46,14.55 -48.34,30.77 -11.95,17.81 -28.21,48.24 -23.69,80.37 1.23,8.79 9.34,33.28 13.77,40.63 8.54,14.19 11.33,17.63 28.31,24.01 29.64,11.14 66.69,-2.31 92.75,-6.13 18.19,-2.67 29.68,4.99 32.12,22.88 2.49,18.31 -3.09,31.8 -7.8,45.04 -4.15,11.69 -13.22,22.51 -18.34,34.32 -8.61,19.85 -32.26,45.45 -46.71,60.77l-28.8 23.84c-13.13,8.98 -24.59,22.66 -29.3,25.22l-15.94 10.41c-5.14,3.22 -10.53,6.46 -16.03,10.27 -6.64,4.6 -10.45,6.59 -17.63,10.59 -2.99,1.66 -5.38,3.06 -8.41,4.72l-35 17.42c-18.75,9.39 -27.11,8.33 -49.62,16.01l-46.33 6.36c-37.78,3.98 -62.83,2.59 -101.82,1.17 -31.45,-1.15 -55.38,-14.36 -80.24,-23.64 -77.95,-29.08 -121.46,-81.81 -129.61,-84.77z"/>
   <path class="fil7" d="M4792.42 3746.32c-1.32,-17.41 -6.69,-39.71 -9.7,-55.75 -2.44,-13 -5.25,-106 -4.18,-124.1 0.5,-8.46 2.41,-46.12 5.81,-54.48 1.96,-4.83 0.62,-1.95 2.28,-4.23l137.27 52.5c10.53,2.18 12.92,6.35 22.42,9.63 7.22,2.48 10.37,1.86 17.09,5.92l25.55 17.51c0.33,0.23 0.78,0.54 1.12,0.76 0.33,0.23 0.79,0.53 1.13,0.75l9.79 7.53c9.65,10.49 11.22,9.09 28.48,20.06l89.25 63.21c19.29,16.15 11.12,12.5 26.69,24.08 0.33,0.25 0.75,0.6 1.07,0.86 32.06,25.25 66.08,66.73 87.09,101.21l4.94 8.23c12.6,18.02 23.85,41.22 26.33,44.34l30.74 54.35 29.1 67.87c-1.51,-27.9 -17.06,-53.23 -25.91,-74.6 -7.45,-18.02 -23.15,-56.89 -32.93,-70.63 -1.11,-1.57 -0.24,0.39 -2.3,-3.42 -1.52,-2.81 -0.67,-1.72 -1.72,-4.03 -3.32,-7.28 -4.11,-5.61 -8.06,-12.55 -6.71,-11.79 -1.93,-4.06 -10.52,-11.83 -4.63,-4.19 -4.74,-7.67 -8.48,-12.31l-71.65 -80.59c-9.53,-9.62 -9.49,-3.74 -16.9,-14.51 -9.6,-13.93 -38.15,-34.41 -52.33,-46.13l-66.18 -45.22c-0.31,-0.21 -0.77,-0.53 -1.07,-0.76l-2.74 -2.64c-5.7,-5.48 -1.69,-3.25 -4.11,-3.2 2.6,1.53 3.95,1.02 11.11,-3.61 19.65,-12.69 17.4,-9.87 45.32,-9.95l231.3 -0.09c5.69,0 12.23,-0.61 17.6,0.6 32.95,7.4 91.59,3.87 127.37,8 34.27,3.95 106.19,2.57 148.48,4.95 -0.7,0.72 -10.88,20.55 -12.77,23.85 -5.02,8.79 -12.82,14.41 -15.54,26.41 7.47,-1.02 7.53,-7.63 11.63,-13.98 9.69,-15.04 26.52,-35.22 38.89,-47.77 3.92,-3.98 3.47,-7.13 11.04,-13.52 6.84,-5.78 1.71,0.28 6.23,-6.43 1.29,-1.91 0.54,-1.23 2.22,-3.54 8.69,-11.91 23.74,-17.38 26.43,-19.19l30.24 -24.22c2.3,-1.48 1.6,-0.89 3.75,-2.11 2.5,-1.42 4.85,-3 7.84,-5.1l5.74 -3.71c0.32,-0.22 0.78,-0.52 1.09,-0.74l12.79 -9.76c0.31,-0.24 0.7,-0.62 1.01,-0.86 6.68,-5.22 11.94,-6.9 16.14,-11.65 10.98,-12.45 17.06,-13.49 29.09,-22.1l8.55 -6.25c12.87,-10.72 95.39,-54.71 109.71,-61.26 6,-2.75 12.39,-4.84 18.42,-8.14 22.89,-12.55 50.25,-22.94 67.73,-31.99 6.65,-3.44 10.98,-3.15 17.53,-7.05l87.89 -38.02c11.26,-5.52 22.87,-9.92 34.21,-16.4l203.78 -108.46c4.1,-2.55 4.52,-1.56 8.9,-4.34l104.94 -71.78c15.2,-11.18 50.11,-34.58 61.47,-49.27 1.68,-2.18 4.05,-4.78 6.25,-7.02 5.52,-5.62 8.05,-8.13 12.43,-13.91 6.92,-9.13 16.28,-20.85 26.91,-25.14 6.19,23.27 19.48,56.07 22.28,79.81 1.22,10.25 0.04,9.18 3.36,12.13 0,-16.73 -10.94,-76.01 -20.62,-93.05 -2.81,-4.96 -1.14,-2.27 -3.81,-4.96 -12.77,0.86 -32.88,29.14 -47.98,43.32l-69.75 59.74 -44.94 30.58c-5.16,3.75 -4.67,4.71 -8.85,7.84l-34.08 21.95c-7.55,4.36 -21.83,10.61 -30.47,17.27 -13.83,10.68 -7.24,4.16 -17.49,10.4l-46.54 26.53c-17.29,8.85 -33.49,16.1 -50.91,24.55l-74.13 36.67c-7.87,3.04 -17.92,8.21 -25.34,12.45l-179.7 80.17c-10.15,3.7 -15.12,8.53 -25.48,12.03 -5.79,1.95 -8.18,1.59 -13.19,3.88 -3.44,1.58 -1.64,1.41 -6.34,3.11 -12.88,4.67 -4.88,-1.82 -19.07,8.97 -5.23,3.98 -5.25,5.36 -10.86,8.05 -7.13,3.43 -5.92,2.1 -12.01,6.63 -11.86,8.84 -15.78,8.43 -23.78,13.77 -8.39,5.61 -22.13,9.3 -34,20.57 -11.09,10.54 -17.37,12.34 -26.39,20.59l-15.03 12.61c-25.95,14.73 -20.02,8.13 -43.15,30.76l-22.46 14.96c-7.53,4.85 -197.53,2.79 -216.24,2.99 -49.03,0.51 -96.52,3.94 -144.79,3.74 -59.35,-0.24 -122.41,6.58 -176.77,7.52 -13.31,0.23 -20.14,3.06 -33.75,3.25 -25.21,0.35 -49.09,0.68 -73.47,2.61 -38.49,3.04 -64.26,4.75 -98.05,-8.36 -9.59,-3.71 -15.28,-8.12 -25.68,-11.49l-55.31 -18.88c-15.95,-5.34 -40.39,-18.68 -57.18,-19.93 -5.2,16.05 -6.59,41.67 -9.17,59.15 -2.99,20.23 -3.7,20.23 -44.15,21.57 -45.3,1.5 -86.77,4.72 -129.73,8.75 -20.21,1.89 -38.16,6.93 -58.08,9.29 -20,2.37 -42.81,2.14 -63.11,5.01 -19.51,2.77 -38.98,8.14 -57.42,10.44 -17.09,2.12 -48.08,2.29 -58.47,11.01l2.22 23.74c14.05,0.17 59.14,-4.92 72.1,-8.32 5.9,-1.55 1.24,-1.9 10.35,-2.9 4.72,-0.52 9.81,0.14 14.73,-0.42l98.09 -12.64c23.51,-0.78 111.98,-0.89 129.75,-7.89l77.34 -3.06c7.43,16.69 5.54,45.44 8.58,67.27 1.26,9.08 4.77,18.9 6.69,29.17 1.68,8.97 3.8,26.39 9.16,32.77z"/>
   <path class="fil8" d="M4617.39 5773.79c-6.25,-10.27 -6.79,-40.57 -4.65,-55.49 1.75,-12.16 16.98,-28.96 30.03,-27.83 4.69,13.97 2.9,29.22 7.48,43.43 6.76,20.98 11.69,58.26 37.12,61.65 14.69,1.97 32.49,0.96 45.49,-1.95 17.34,-3.88 21.76,-7.6 29.23,-21.58 6.87,-12.85 8.78,-22.01 9.53,-39.16 0.91,-20.78 -6.53,-70.37 -15.08,-84.04 -5.15,0.28 -4.29,0.22 -8.26,2.49 -0.48,0.28 -1.78,1.22 -2.23,1.53l-4.29 3.2c-33.11,28.15 31.68,118.5 -37.54,107.75 -20.73,-3.21 -17.66,-45.83 -20.64,-67.4 -1.71,-12.43 -2.16,-28.5 -12.22,-31.87 -19.24,-6.43 -18.65,-0.57 -27.64,10.44 -27.75,2.05 -32.15,-25.1 -54.54,-32.35 -12.31,0.1 -21.97,33.84 -44.16,41.03 -8.57,2.77 -14.65,-0.99 -21.15,-5.76 -14.29,-10.46 -32.69,-2.45 -45.03,0.85 -22.38,6 -35.54,-0.17 -52.83,3.45 -1.72,15.16 2.71,121.56 7.1,130.67 9.2,1.32 21.04,1.66 28,-1.25 5.8,-16.69 -1.43,-52.81 -0.87,-73.21 0.85,-30.84 18.63,-31.26 47.17,-28.99 7.35,13.01 7.05,32.85 8.5,49.69 0.93,10.84 3.33,42.78 7.88,50.82 31.65,10.78 28.08,-16.94 25.87,-37.93 -2.18,-20.85 -3.06,-46.56 -2.85,-68.39 42.37,0.01 26.05,16.36 35.65,67.76 7.91,42.36 39.45,41.22 58.12,27.97 2.22,-14.42 1.58,-23.63 -1.81,-35.1 -13.2,1.13 -8.03,7.66 -21.38,9.57z"/>
   <path class="fil8" d="M3878.75 5728.77c21.93,-5.31 39.48,5.85 43.58,25.6 10.11,48.77 -54.18,77.08 -64.11,26.62 -4.53,-23.04 -1,-47 20.53,-52.22zm-143.21 100.02c24.37,3.81 21.24,-7.73 22.14,-20.98 2.11,-30.85 -5.51,-73.99 20.9,-80.74 6.92,-1.76 36.47,-7.04 42.01,-6.3 5.14,37.87 -2.32,80.61 6.25,116.16 22.4,4.66 27.38,-7.27 41.36,-3.6 10.95,2.88 7.54,10.59 41.54,2.52 26.23,-6.23 43.06,-26.97 47.31,-50.64 6.26,-34.85 -4.69,-58.28 -23.66,-73.57 -46.12,-37.18 -73.76,10.49 -75.8,-18.24 -0.62,-8.84 3.38,-43.57 -13.06,-46.73 -27.84,1 -19.24,30.66 -23.79,54.89 -22.99,-0.49 -0.61,-6.19 -44.06,-1.09 -14.29,1.68 -36.5,-2.1 -48.64,2.23 -4.27,61.25 -2.55,61.57 1.28,124.13l6.22 1.96z"/>
   <path class="fil8" d="M2546.28 5703.58c8.67,-11.44 33.56,-149.22 31.33,-170.66 -13.15,-2.58 -23.23,-5.37 -33.96,4.73 -11.6,10.92 -52.46,56 -64.64,58.16 -9.64,-19.38 -16.23,-44.74 -26.02,-63.91 -14.55,-28.49 -26.19,-45.26 -41.75,-11.9 -9.86,21.15 -10.21,49.3 -16.21,73.91 -5.65,23.2 -14.09,51.07 -11.13,78.42 6.53,3.52 17.71,4.67 27.74,3.56 4.31,-7.21 7.01,-35.85 9.99,-47.73 2.77,-11.05 5.01,-38.29 14.45,-43.55 6.55,2.92 11.96,27.56 13.69,34.82 6.87,28.73 30.61,32.17 41.7,23.83 0.43,-0.32 1.59,-1.32 1.98,-1.69l4.94 -6.15c10.73,-14.81 10.89,-24.62 29.34,-26.2 0.44,30.95 -15.54,58.68 -11.74,88.92 7.84,5.02 17.12,6.57 30.29,5.44z"/>
   <path class="fil9" d="M1198.77 3344.8c0.04,24.6 14.37,48.58 19.94,71.53l10.09 26.15 72.77 98.31c15.79,17.66 17.68,22.32 35.76,37.64 17.66,14.97 33.91,33.21 54.8,43.27l2.81 1.27c6.32,2.5 7.08,1.44 11.93,4.73l12.13 9.89c6.16,6.46 15.91,9.72 22.3,15.54l7.48 7.45c10.11,8.19 47.96,22.86 60.43,27.64l48.75 17.2c13.94,5.97 26.52,7.47 41.51,10.5 37.4,7.57 117.68,24.7 151.82,22.85 -4.03,-8.1 -54.73,-30.96 -66.5,-37.66l-30.87 -21.73c-5.16,-3.92 -9.73,-6.86 -15.59,-10.63l-13.73 -12.74c-6.61,-5.73 -7.15,-3.18 -16.98,-9.18l-7.92 -5.48c-2.65,-2.25 -4.17,-3.96 -6.6,-6.65 -6.85,-7.58 -7.46,-4.84 -15.66,-10.43 -24.07,-16.41 -40.72,-37.04 -56.81,-48.36 -12.32,-8.66 -61.48,-65.4 -67.55,-75.94 -4.53,-7.87 -11.43,-13.52 -17.79,-21.42 -8.29,-10.31 -13.33,-18.22 -20.73,-30.17l-15.04 -24.59c-13.49,-22.93 -21.36,-47.38 -34.12,-71.09l-8.01 -22.11c-6.34,-16 -8.13,-43.38 10.72,-21.71l43.49 63.52c7.19,10.47 10.57,15.8 18.36,25.02 17.15,20.26 11.81,18.2 17.7,25.68 6,7.63 14.93,14.93 20.66,22.62 3.51,4.7 6.3,7.95 10.23,12.18l41.52 43.07c39.55,39.42 82.07,76.88 125.74,111.12 11.3,8.86 16.9,18.39 26.54,21.75l11.51 3.36c14.6,3.34 15.67,4.91 19.82,-5.44l8.63 -29.59c2.75,-12.88 6.52,-31.64 5.9,-45.86 -0.33,0.49 -0.62,1.14 -0.81,1.58 -0.19,0.43 -0.55,1.05 -0.76,1.6 -4.48,11.48 2.38,-9.15 -1.2,3.32 -0.24,0.84 -0.78,4.05 -0.94,5.08 -5.66,36.5 -1.11,24.95 -20.49,61.33 -14.76,-0.03 -23.77,-8 -32.35,-13.98 -10,-6.99 -17.17,-11.35 -26.52,-18.64 -16.54,-12.93 -33.22,-26.66 -48.36,-40.09 -34.87,-30.94 -62.03,-57.29 -90.67,-88.01 -14.83,-15.91 -60.88,-70.71 -70.85,-86.7l-35.65 -52.8c-7.78,-12.72 -16.42,-29.46 -25.99,-40.16 -14.29,-15.98 -8.01,-21.42 -20.07,-24.45 -14.68,19.43 22.98,118.48 35.66,142.78 1.43,2.73 2.79,5.32 4.53,8.41l23.42 40.59c19.09,31.77 66.77,83.12 93.69,111.02 22.7,23.53 52.85,54.18 79.4,72.76 5.69,3.99 7.82,9.04 13.29,12.95l58.82 42.8c4.82,3.4 3.76,1.72 8.53,4.45 6.66,3.8 0.69,1.14 6.85,4.41 7.65,4.06 27.46,4.65 30.98,14.95l0.22 4.99c-0.59,0.24 -1.28,0.46 -1.82,0.59 -7.73,1.9 -8.33,2.5 -24.4,-1.71l-21.4 -7.15c-5.83,-2.56 -15.63,-2.21 -23.45,-4.84l-42.24 -12.22c-17.46,-5.16 -26.18,-6.83 -40.85,-13.75 -5.85,-2.76 -13.45,-4.21 -19.89,-6.4 -17.27,-5.87 -68.54,-32.73 -76.31,-34.82 -14.74,-3.96 -34.6,-20.43 -51.75,-31.07 -70.42,-43.68 -155.28,-146.23 -183.05,-227.53 -5.56,-16.28 -8.41,-35.48 -15.01,-40.8z"/>
   <path class="fil8" d="M2913.75 5760.94c7.71,-15.31 8.63,-45.6 12.04,-65.18 2.11,-12.13 6.06,-18.74 13.44,-25.84 22.12,-21.29 39.17,0.62 36.75,23.38 -1.04,9.77 -2.17,24.61 -3.76,34.33 -4.13,25.09 -8.08,50.25 23.31,47.37 8.98,-19.03 8.08,-44.8 13.26,-67.45 3.56,-15.54 24.19,-44.15 43.02,-30.13 20.73,15.44 -22.73,136.69 35.77,101.55 2.46,-33.02 7.88,-60.15 4.98,-93.4 -1.53,-17.52 1.22,-30.83 -13.13,-37.42 -12.55,-5.76 -28.44,-7.45 -45.37,-5.35 -5.56,4.43 -4.53,6.62 -11.28,11.12 -12.99,-0.69 -28.66,-22.38 -48.83,-23.9 -14.47,-1.08 -20.32,3.92 -33.91,4.13 -33.38,0.53 -34.87,-27.81 -49.54,58.39 -3.42,20.12 -8.04,46.39 -5.77,67.41 9.46,2.67 19.28,1.98 29.02,0.99z"/>
   <path class="fil8" d="M5091.83 5677.16c-14.45,-0.84 -62.2,-58.73 -87.97,-78.79 -13.43,-10.46 -23.84,-18.8 -33.71,-7.44 -12.05,13.87 2.65,76.99 5.11,97.66 2.26,18.96 4.04,32.56 7.45,48.56 1.72,8.05 2.34,16.76 8.64,20.4 4.13,2.39 21.67,3.8 23.57,-1.42 5.08,-13.96 -6.39,-72.74 -5.29,-101.38 10.1,3.72 43.18,42.76 56.1,52.95 13.7,10.81 31.95,34.28 48.37,36.7 10.76,1.59 13.52,-0.37 19.73,-5.95 1.16,-19.87 -11.55,-136.01 -17.32,-151.75 -1.11,-3.02 -5.33,-12.67 -7.34,-14.9 -7.84,-8.73 -26.73,0.49 -24.12,29.44 2.37,26.42 9.4,45.69 6.78,75.92z"/>
   <path class="fil8" d="M5747.82 5501.34c-2.95,-20 -8.24,-37.87 -17.52,-46.44 -0.28,-0.26 -0.69,-0.64 -0.98,-0.9 -13.15,-11.59 -24.95,1.5 -26.35,6.24 -11.18,37.87 8.46,36.71 5.66,52.35 -2.17,12.13 -16.45,12.85 -30.38,14.37 -11.51,1.25 -28.35,4.13 -40.28,3.41 -4.63,-13.14 -1.9,-31.73 -8.67,-42.13 -4.62,-7.11 -25.23,-19.25 -35.03,-8.39 -12.94,13.29 18.88,100.95 23.5,126.68 1.96,10.92 4,31.33 14.28,36.99 4.46,2.07 15.92,3.58 19.91,-0.54 3.67,-3.8 2.19,-12.77 1.97,-21.19 -0.31,-12.28 -4.08,-27.42 -1.21,-40.5 2.77,-12.61 14.74,-16.11 26.05,-18.59 73.08,-16.04 41.87,54.53 66.37,62.96 9.84,3.39 21.66,-1.53 23.84,-15.62 2.35,-15.19 -2.52,-25.31 -4.78,-37.24 -4.52,-23.95 -12.73,-46.78 -16.38,-71.46z"/>
   <path class="fil8" d="M5988.28 5490.23c-5.55,-21.43 12.7,-42.22 28.18,-43.15 20.86,-1.26 35.56,17.58 38.83,32.37 5.59,25.26 -9.44,37.74 -28.54,42.03 -13.77,3.09 -18.89,-1.13 -25.05,-8.99 -4.3,-5.49 -11.43,-14.58 -13.42,-22.26zm40.82 -82.74c-11.59,6.55 -26.36,2.3 -47.68,19.47l-5.76 5.59c-12.21,12.21 -19.68,17.68 -20.7,40.66 -1.34,30.03 1.09,29.85 14.51,56.06 2.31,4.52 6.8,9.68 10.11,12.87 8.08,7.78 21.97,9.37 34.64,12.74 35.5,9.42 23.48,-15.69 75.55,-16.01 9.48,-10.96 11.15,-8.04 10.03,-28.04 -0.36,-6.39 -4.38,-28.5 -6.1,-34.05l-30.3 -102.92c-11.92,-24.14 -32.31,-18.32 -34.32,-5.93 -2.01,12.35 2.55,25.64 0.02,39.56z"/>
   <path class="fil8" d="M5142.63 5653.28c12.29,106.61 34.41,71.9 84.82,78.77 1.48,7.47 -0.07,8.45 -1.95,14.55 -20.31,3.72 -12.07,-7.39 -32.7,-6.51 -5.72,3.8 -4.74,5.26 -11.41,9.36l-9.26 6.08c-0.25,0.19 -0.99,1.21 -1.17,0.87 -0.19,-0.36 -0.81,0.56 -1.2,0.86 -0.54,10.01 2.34,20.33 8.74,25.58 7.35,6.03 57.29,4.82 77.65,-16.72 29.66,-31.39 12.25,-62.81 10.81,-76.84 -1.04,-10.19 -0.35,-21.41 -0.82,-31.72 -3.91,-86.63 -45.2,-78.17 -43.03,-45.27 0.96,14.58 8.11,63.85 6.3,77.54 -1,7.55 -0.42,7.37 -8.84,8.79 -8.1,1.37 -23.72,1.74 -31.53,0.02 -7.54,-11.93 -8.1,-41.07 -12.2,-57.08 -7.03,-27.49 -5.48,-37.43 -30.98,-36.49 -9.85,13.45 -6,24.2 -3.23,48.21z"/>
   <path class="fil7" d="M3066.22 3938.56c18.92,-1.04 46.23,-9.79 65.58,-16.83l47.25 -14.79c14.34,-7.02 11.46,-1.4 29.65,-9.8 17.13,-7.9 33.81,-5.49 50.89,-20.4 15.65,-13.64 4.24,2.56 21.44,-19.96 4.08,-5.33 7.27,-10.39 9.51,-18.72 5.19,-19.28 -0.82,-21.66 -19.02,-18.82l-49.02 11.22c-24.13,4.38 -23.18,6.69 -32.49,8.65 -5.56,1.16 -10.87,1.42 -16.33,2.74 -6.12,1.49 -7.03,3.4 -15.42,5.09l-32.46 8.88c-32.61,14.91 -11.4,5.35 -36.8,13.43 -4.47,1.42 -1.25,0.45 -4.09,1.72 -15.66,6.97 -23.6,3.69 -34.64,8.66 -0.33,21.01 7.49,46.37 15.95,58.93z"/>
   <path class="fil8" d="M3487.3 5685.51c29.98,-23.23 66.42,6.93 88.57,4.54 0.56,-17.41 -0.37,-28.02 -11.55,-35.98 -8.49,-6.04 -24.28,-10.83 -35.66,-11.61 -61.4,-4.21 -79.37,19.89 -73.89,67.86 1.89,16.48 11.21,18.48 22.78,24.87 35.25,19.46 20.65,2.51 50.53,20.75 8.08,4.93 16.51,5.36 14.48,15.36 -0.57,2.81 -1.77,3.93 -3.2,5.99 -15.98,22.89 -47.35,9.71 -68.74,-1.41 -6.73,-3.51 -8.41,-5.33 -18.06,-4.38 -25.13,40.79 47.82,69 86.06,51.82 32.26,-14.49 41.83,-25.17 36.54,-67.56 -1.98,-15.88 -12.53,-21.76 -25.95,-27.03 -14.46,-5.68 -22.94,-8.82 -36.69,-15.54 -14,-6.85 -28.04,-7.04 -25.22,-27.68z"/>
   <path class="fil8" d="M3166.9 5692.42c16.31,-4.54 39.32,5.73 39.56,30.91 0.22,23.07 -6.98,40.75 -29.54,41.78 -28.17,1.29 -32.21,-10.14 -38.36,-33.94 -5.22,-20.23 11.74,-34.13 28.34,-38.75zm60.85 109.08c7.07,-7.61 7.18,-15.2 8.68,-27.56 15.15,-124.22 17.97,-107.4 -20.03,-108.04 -26.72,-0.46 -28.31,-12.73 -63.99,-8.21 -11.75,1.48 -24.21,15.05 -31.08,23.25 -3.81,4.56 -4.7,5.67 -8.57,10.19 -21.1,24.63 -6.17,92.88 25.06,102.91 27.2,8.75 54.83,-3.89 62.65,-0.39 11.93,5.32 3.32,8.65 27.28,7.85z"/>
   <path class="fil8" d="M5801.76 5531.6c-6.56,-38.24 58.66,-62.27 65.98,-1.68 1.45,11.99 1,22.58 -6.58,28.88 -36.24,30.13 -56.88,-12.45 -59.4,-27.2zm67.37 -72.21c-20.86,7.84 -43.18,4.51 -62.21,10.69 -16.22,5.27 -12.81,0.72 -22.61,13.72 -20.95,27.79 -19.36,57.58 -5.44,87.81 5.68,12.34 12.48,18 22.59,22.81l2.61 1.14c3.45,1.82 1.97,1.23 3.37,2.16 12.94,8.53 29.45,9.03 43.53,3.4 1.4,-0.56 4.85,-1.86 6.68,-2.73 44.1,-20.96 72.63,-2.73 53.79,-54 -4.34,-11.81 -8.28,-7.64 -13.51,-42.41 -1.38,-9.18 -7.17,-34.74 -13.95,-41.06 -3.2,-2.98 -7.29,-3.33 -10.16,-2.99 -5.41,0.65 -3.69,1.08 -4.69,1.46z"/>
   <path class="fil8" d="M4867.62 5759.01c14.03,10.32 23.35,15.86 39.1,14.73 6.93,-11.49 6.32,-29.99 -4.95,-37.8 -5.57,-3.87 -8.01,-6.48 -14.69,-9.62 -50.45,-23.76 23.85,-58.53 5.17,-80.01 -3.07,-3.54 -16.4,-3.19 -24.08,0.6 -7.43,3.68 -8.72,6.97 -13.43,13.14 -4.84,6.34 -3.48,2.83 -7.29,7.49 -2.3,2.8 -9.26,17.56 -19.45,19.46 -14.34,-13.33 -6.08,-66.71 -24.45,-92.33 -7.73,-0.62 -15.62,4.9 -19.24,9.73 -4.8,6.41 -4.52,16.07 -3.8,24.98l18.45 155.11c49.62,7.97 18.24,-27.37 34.68,-46.72 12.01,0.08 15.16,7.4 33.98,21.24z"/>
   <path class="fil8" d="M5324.66 5602.96c8.41,-2.59 23.27,-2.36 29.23,2.8 8.44,7.3 -0.58,16.59 -7.49,19.02 -16.76,5.91 -37.94,2.63 -32.12,-15.02 1.9,-5.79 4.35,-4.95 10.38,-6.8zm-5.23 58.39c15.51,-20.39 77.11,-0.67 78.39,-33.79 0.44,-11.43 -1.07,-23.41 -6.74,-31.04 -15.37,-20.7 -55.72,-34.14 -81.87,-20.07 -18.61,10.01 -28.45,20.68 -32.87,41.29 -14.48,67.58 23.93,108.66 87.97,90.76 26.81,-7.49 35.71,-8.88 33.71,-40.01 -37.36,-1.74 -73.11,26.97 -78.59,-7.14z"/>
   <path class="fil8" d="M4220.23 5828.26c18.21,-27.43 -18.73,-46.86 -32.77,-64.15 -22.87,-28.19 31.42,-26.59 28.13,-65.86 -8.97,-4.71 -9.78,-6.38 -22.47,-2.03 -35.2,12.09 -26.96,38.03 -49.6,36.79 -6.04,-10.58 -4.13,-33.38 -4.26,-47.24 -0.17,-17.25 0.55,-29.36 -8.22,-40.13 -9.86,-0.94 -17.68,-0.03 -23.91,3.65 -4.34,26.11 -2.64,153.7 2.81,178.05l22.72 1.59c6.77,-14.16 4.99,-28.07 10.86,-41.13 10.77,-1.93 16.74,0.5 23.19,6.42 19.01,17.42 27.96,37.83 53.52,34.04z"/>
   <path class="fil10" d="M4047.51 4627.11c0.21,-0.08 0.6,0.04 0.67,0.04l2.03 -0.07c1.89,-0.49 -1.43,2.91 3.04,-1.71 4.14,-4.29 2.49,-2.37 4.12,-8.87 5.24,-20.86 3.17,-8.73 9.08,-19.44 4.72,-8.55 2.56,-11.25 11.32,-16.06 6.14,-3.38 -1.28,2.98 3.21,-2 5.87,-6.49 2.84,-6.94 19.7,-21.05l3.22 -2.43c15.34,-11.45 7.84,-8.09 14.03,-14.16l17.59 -10.67c2.54,-1.57 4.33,-3.39 8.64,-4.52 6.46,-1.7 6.18,0.75 24.59,-3.76l17.77 1.42c3.75,1.06 2.47,0.88 5.21,2.36 19.04,10.26 15.85,-1.12 29.38,15.89l8.09 10.64c8.77,11.28 9.73,26.54 8.67,46.22 -0.42,7.64 -2.18,16.16 -2.75,25.08 -0.91,14.08 0.58,4.25 -4.51,18.55 -8.69,24.41 -7.55,18.67 -15.28,35.7l-5.79 11.1c-0.22,0.34 -0.53,0.79 -0.75,1.14l-6.04 9.01c-10.43,11.94 -3.12,8.75 -8.81,17.46l-25.63 21.45c-0.44,0.35 -1.74,1.34 -2.23,1.65 -2.69,1.68 -0.8,0.43 -3.9,1.88l-10.02 5.04c-5.59,2.07 -4.58,0.31 -10.11,3 -5.21,2.52 -0.04,1.98 -8.98,4.44l-23.33 5.14c-9.02,0.71 -16.53,-2.1 -23.8,-5.06 -1.74,-0.71 -3.75,-1.63 -5.27,-2.31 -0.42,-0.18 -0.9,-0.41 -1.31,-0.59 -7.44,-3.3 -7.96,-2.17 -12.09,-6.9l-5.11 -8.11c-3.53,-4.92 -7.61,-6.59 -10.09,-16.39l-6.74 -47.93c-0.23,-4.93 0.31,-9.91 -0.35,-14.81 -3.56,-26.57 -1.07,-1.78 2.53,-30.37zm109.88 -119.95c-21.02,4.58 -28.65,5.18 -46.25,14.26 -19.12,9.87 -17.87,11.97 -35.23,25.04 -18.49,13.91 -35.61,50.78 -40.41,79.37 -4.72,28.18 -6.53,104.97 20.42,128.3 43.39,37.57 111.35,24.45 146.99,-22.49 17.32,-22.81 30.01,-49.44 38.65,-81.63 5.9,-22.02 10.08,-87.73 -3.16,-106.47 -11,-15.56 -15,-21.76 -30.81,-29.27 -15.23,-7.23 -31.43,-11.21 -50.2,-7.11z"/>
   <path class="fil8" d="M3625.23 5725.29c11.64,-7.95 52.82,-3.38 48.49,15.25 -14.19,1.41 -38.78,4.44 -49.46,-3.98l0.97 -11.27zm83.1 40.5c14.98,-34.12 -14.42,-69.05 -47.97,-72.21 -46.05,-4.34 -62.19,16.57 -72.9,51.27 -6.08,19.68 -3.32,39.22 5,53.87 10.75,18.95 11.06,22.03 32.39,29.45 15,5.21 96.08,13.57 72.86,-35 -12.2,-0.74 -58.71,16.62 -68.71,-2.68 -20.69,-39.94 43.17,-11.08 79.33,-24.7z"/>
   <path class="fil8" d="M2649.18 5716.6c1.62,-20.33 4.89,-64.04 14.84,-81.09 5.37,-9.2 10.06,-9.13 24.15,-8.68 37.42,1.2 10.15,40.32 14.07,105.09 11.87,1.57 16.59,3.79 30.75,0.78 7.18,-17.47 15.31,-104.14 4.69,-121 -9.38,-14.88 -25.59,-22.27 -44.16,-19.76 -10.83,1.47 -18.68,5.84 -28.7,2.83 -30.64,-9.22 -25.16,-28.01 -44.29,53.7 -2.11,9 -13.69,62.97 -5.15,70.71 7.79,6.03 26.7,0.87 33.8,-2.58z"/>
   <path class="fil8" d="M5448.56 5604.94c-0.04,-17.56 2.38,-21.01 16.49,-25.24 13.88,-4.16 12.87,-9.9 31.23,-9.2 0.82,8.95 19.48,90.17 23.72,97.75 36.15,1.82 30.71,-14.12 21.79,-58.61 -5.24,-26.11 -8.15,-59.4 -19.91,-72.15 -3.2,-0.01 -58.9,8.31 -61.88,9.54 -9.93,4.09 -12.96,7.22 -25.43,10.02 -10.6,2.37 -19.2,2.73 -28.62,6.52 -1.98,14.35 16.14,121.57 27.55,127.6 9.86,1.18 17.66,-0.69 23.92,-3.83 1.7,-29.2 -8.78,-48.88 -8.86,-82.4z"/>
   <path class="fil8" d="M3254.07 5793.58c6.8,5.6 25.7,8.38 30.48,-0.22 4.04,-7.27 6.3,-53.21 9.67,-70.92 2.65,-13.98 6.25,-17.19 20.68,-19.29 18.94,-2.76 22.89,2.52 27.32,12.88 3.77,8.82 2.77,26.07 1.95,37.46 -3.72,52.21 -9.77,50.68 20.85,51.24l4.1 -5.83c8.88,-15.81 11.22,-93.52 3.46,-109.38 -7.05,-14.42 -29.94,-20.48 -48.35,-17.31 -59.47,10.23 -60.91,-35.68 -68.54,58.73 -0.89,11.01 -2.88,19.43 -3.87,30.03l2.25 32.61z"/>
   <path class="fil8" d="M4289.15 5695.92c-2.54,14.89 2.34,80.48 6.3,94.07 17.1,58.81 110.25,43.55 115.59,-13.83 2.12,-22.77 1.01,-73.74 -9.9,-89.61 -10.01,-1.01 -14.1,-0.94 -22.57,1.57 -6.33,11.9 -3.41,43.37 -3.47,59.73 -0.13,31.2 1.11,42.8 -20.91,43.79 -35.11,1.59 -28.61,-25.84 -28.8,-68.28 -0.08,-15.42 -2.74,-14.91 -4.03,-27.36 -11.66,-2.4 -20.03,-4.92 -32.21,-0.08z"/>
   <path class="fil8" d="M2850.8 5637.74l-10.05 57.9c-3.8,15.1 -5.31,21.69 -22.91,22.26 -17,0.55 -23.98,-4.54 -24.83,-20.74 -0.74,-14.01 10.97,-79.4 1.3,-85.77 -5.16,-3.39 -16.63,-1.35 -20.08,0.61 -14.03,7.97 -29.5,108.44 -0.79,127.67 16.52,11.06 54.03,14.78 77.49,7.51 15.59,-4.83 26.61,-48.02 28.97,-63.4 5.51,-36.03 13.03,-63.43 -21.03,-62.24l-8.07 16.2z"/>
   <path class="fil8" d="M3969.05 5703.12c-2.2,26.32 2.55,67.05 4.78,93.65 1.63,19.42 1.84,24.56 17.01,32.46 38.95,20.27 86.82,6.76 93.51,-36.47 2.88,-18.65 7.23,-78.33 -1,-91.85l-26.14 0.38c-14.26,2.95 -5.71,40.95 -7.14,69.21 -1.51,29.87 -7.13,35.07 -34.94,34.08 -23.02,-28.42 -6.6,-88.28 -19.23,-99.01 -7.5,-2.76 -17.25,-3.57 -26.85,-2.45z"/>
   <path class="fil11" d="M2594.04 5711.85c7.92,-13.04 25.8,-98.52 19.79,-128.64 -10.44,-3.04 -10.69,-5.55 -23.61,-4.62 -5.61,13.52 -24.98,109.24 -24.55,127.89 7.84,7.23 14.7,7.72 28.37,5.37z"/>
   <path class="fil12" d="M3878.75 5728.77c-21.53,5.22 -25.06,29.18 -20.53,52.22 9.93,50.46 74.22,22.15 64.11,-26.62 -4.1,-19.75 -21.65,-30.91 -43.58,-25.6z"/>
   <path class="fil8" d="M5914.41 5508.96c20.72,72.28 17.95,44.53 27.13,67.4 9.4,-0.49 7.82,-0.65 14.43,-3.68 6.29,-16.91 1.16,-56.05 -4.1,-70.13 -6.63,-17.79 -2.3,0.19 -9.46,-27.84 -2.12,-8.29 -4.58,-19.73 -11.67,-24.86 -0.5,-0.24 -1.14,-0.47 -1.55,-0.59 -0.41,-0.11 -1.06,-0.4 -1.59,-0.53l-8.92 -0.82c-1.95,0.15 -7.49,1.42 -9.39,2.7 -10.89,7.35 1.17,44.58 5.12,58.35z"/>
   <path class="fil12" d="M3166.9 5692.42c-16.6,4.62 -33.56,18.52 -28.34,38.75 6.15,23.8 10.19,35.23 38.36,33.94 22.56,-1.03 29.76,-18.71 29.54,-41.78 -0.24,-25.18 -23.25,-35.45 -39.56,-30.91z"/>
   <path class="fil12" d="M5988.28 5490.23c1.99,7.68 9.12,16.77 13.42,22.26 6.16,7.86 11.28,12.08 25.05,8.99 19.1,-4.29 34.13,-16.77 28.54,-42.03 -3.27,-14.79 -17.97,-33.63 -38.83,-32.37 -15.48,0.93 -33.73,21.72 -28.18,43.15z"/>
   <path class="fil12" d="M5801.76 5531.6c2.52,14.75 23.16,57.33 59.4,27.2 7.58,-6.3 8.03,-16.89 6.58,-28.88 -7.32,-60.59 -72.54,-36.56 -65.98,1.68z"/>
   <path class="fil6" d="M5927.69 5427.79c2.17,-13.31 -1.43,-18.2 -9.53,-25.45 -29.98,-26.8 -50.78,44.11 9.53,25.45z"/>
   <path class="fil13" d="M5324.66 5602.96c-6.03,1.85 -8.48,1.01 -10.38,6.8 -5.82,17.65 15.36,20.93 32.12,15.02 6.91,-2.43 15.93,-11.72 7.49,-19.02 -5.96,-5.16 -20.82,-5.39 -29.23,-2.8z"/>
   <path class="fil8" d="M2626.24 5538.88c-11.18,-5.46 -48.21,-9.11 -37.27,14.49 3.29,7.1 17.12,5.99 25.96,5.89 15.34,-0.17 13.48,-5.29 11.31,-20.38z"/>
   <path class="fil8" d="M5481.84 5513.64c5.09,2.5 3.55,3.24 8.32,4.71 42.55,13.08 38.67,-40.75 -8.48,-20.74l0.16 16.03z"/>
   <path class="fil12" d="M3625.23 5725.29l-0.97 11.27c10.68,8.42 35.27,5.39 49.46,3.98 4.33,-18.63 -36.85,-23.2 -48.49,-15.25z"/>
  </g>
 </g>
</svg>
